<svg width="327" height="352" viewBox="0 0 327 352" fill="none" xmlns="http://www.w3.org/2000/svg">
<path d="M169.732 216.462C150.043 216.107 132.309 208.335 120.459 195.453C108.153 207.9 90.1498 215.028 70.4611 214.673C38.0328 214.089 11.4427 192.595 6.31399 164.93C-6.10248 160.353 -16.7092 152.512 -24.1171 142.432C-31.5251 132.352 -35.389 120.505 -35.203 108.44C-34.9182 92.6335 -27.6726 77.6003 -15.06 66.6471C-2.44741 55.694 14.4989 49.7182 32.0511 50.0345C36.3528 50.1119 40.3156 50.6305 44.772 51.3069C57.0271 41.6909 72.855 35.8653 90.2273 36.1783C109.916 36.533 127.65 44.3046 139.5 57.1867C151.806 44.7398 169.809 37.612 189.498 37.9667C221.926 38.5509 248.516 60.045 253.645 87.7102C266.062 92.2868 276.668 100.128 284.076 110.208C291.484 120.288 295.348 132.135 295.162 144.2C294.877 160.006 287.632 175.04 275.019 185.993C262.406 196.946 245.46 202.922 227.908 202.605L215.187 201.333C202.932 210.949 187.104 216.775 169.732 216.462Z" fill="#A3EFF1"/>
<path d="M120.827 195.115L120.472 194.729L120.103 195.102C107.902 207.443 90.0346 214.526 70.4701 214.173C38.2466 213.593 11.8854 192.239 6.80562 164.839L6.75377 164.559L6.48692 164.461C-5.8432 159.916 -16.3677 152.132 -23.7142 142.136C-31.06 132.141 -34.8872 120.399 -34.7031 108.448C-34.4208 92.7926 -27.2444 77.8907 -14.7321 67.0246C-2.21794 56.1569 14.6066 50.2203 32.0421 50.5344C36.3092 50.6112 40.2449 51.1255 44.697 51.8013L44.9106 51.8337L45.0807 51.7003C57.2485 42.1527 72.965 36.3674 90.2183 36.6782C109.783 37.0307 127.383 44.7526 139.132 57.5252L139.487 57.9111L139.856 57.5382C152.057 45.1971 169.924 38.1142 189.489 38.4666C221.712 39.0472 248.074 60.4005 253.153 87.8014L253.205 88.081L253.472 88.1794C265.802 92.7241 276.327 100.508 283.673 110.504C291.019 120.499 294.846 132.241 294.662 144.192C294.38 159.848 287.203 174.749 274.691 185.615C262.182 196.479 245.366 202.415 227.937 202.106L215.237 200.835L215.037 200.815L214.878 200.94C202.71 210.487 186.994 216.273 169.741 215.962C150.176 215.609 132.576 207.887 120.827 195.115Z" stroke="#15C6D2" stroke-opacity="0.27"/>
<ellipse cx="15.9069" cy="14.1949" rx="15.9069" ry="14.1949" transform="matrix(0.987167 0.159691 -0.196965 0.980411 38.0666 213.662)" fill="#A3EFF1"/>
<path d="M66.2215 232.585C64.7369 239.975 56.7396 244.954 48.2683 243.584C39.797 242.214 34.2409 235.042 35.7255 227.652C37.21 220.263 45.2073 215.283 53.6786 216.654C62.1499 218.024 67.706 225.196 66.2215 232.585Z" stroke="#15C6D2" stroke-opacity="0.27" stroke-width="0.921368"/>
<ellipse cx="10.7606" cy="9.60244" rx="10.7606" ry="9.60244" transform="matrix(0.987167 0.159691 -0.196965 0.980411 3.84033 236.863)" fill="#A3EFF1"/>
<path d="M22.7391 249.641C21.7541 254.544 16.4364 257.875 10.7708 256.959C5.10531 256.042 1.41876 251.254 2.40376 246.351C3.38877 241.448 8.70652 238.117 14.3721 239.033C20.0376 239.95 23.7241 244.738 22.7391 249.641Z" stroke="#15C6D2" stroke-opacity="0.27" stroke-width="0.921368"/>
<path d="M31.7281 118.297L28.7281 105.417H30.8681L33.0481 115.077L35.4881 106.977V105.417H37.2681L40.0081 115.077L42.2281 105.417H44.3481L41.3681 118.297H39.2281L36.6481 109.277L33.9081 118.297H31.7281ZM45.7878 118.297V104.817H47.9678V109.737C48.3811 109.403 48.8744 109.137 49.4478 108.937C50.0211 108.723 50.6678 108.617 51.3878 108.617C52.5878 108.617 53.4744 108.903 54.0478 109.477C54.6211 110.05 54.9078 110.943 54.9078 112.157V118.297H52.7478V112.257C52.7478 111.523 52.5878 111.01 52.2678 110.717C51.9611 110.423 51.4211 110.277 50.6478 110.277C50.1678 110.277 49.6811 110.383 49.1878 110.597C48.6944 110.797 48.2878 111.063 47.9678 111.397V118.297H45.7878ZM60.0173 118.497C59.4173 118.497 58.8573 118.39 58.3373 118.177C57.8306 117.963 57.424 117.643 57.1173 117.217C56.8106 116.777 56.6573 116.237 56.6573 115.597C56.6573 114.69 56.964 113.963 57.5773 113.417C58.204 112.857 59.164 112.577 60.4573 112.577H63.4973V112.157C63.4973 111.703 63.424 111.343 63.2773 111.077C63.144 110.81 62.8906 110.617 62.5173 110.497C62.1573 110.377 61.624 110.317 60.9173 110.317C59.7973 110.317 58.7506 110.483 57.7773 110.817V109.197C58.204 109.023 58.724 108.883 59.3373 108.777C59.9506 108.67 60.6106 108.617 61.3173 108.617C62.704 108.617 63.7573 108.897 64.4773 109.457C65.2106 110.017 65.5773 110.93 65.5773 112.197V118.297H63.7173L63.5773 117.337C63.1906 117.71 62.7106 117.997 62.1373 118.197C61.5773 118.397 60.8706 118.497 60.0173 118.497ZM60.5973 116.937C61.2506 116.937 61.8173 116.83 62.2973 116.617C62.7906 116.39 63.1906 116.09 63.4973 115.717V114.057H60.4973C59.8573 114.057 59.3906 114.183 59.0973 114.437C58.8173 114.677 58.6773 115.05 58.6773 115.557C58.6773 116.05 58.844 116.403 59.1773 116.617C59.5106 116.83 59.984 116.937 60.5973 116.937ZM71.6148 118.497C70.6015 118.497 69.8415 118.23 69.3348 117.697C68.8415 117.15 68.5948 116.41 68.5948 115.477V110.517H67.1948V108.817H68.5948V106.637L70.7548 105.977V108.817H73.2748L73.1348 110.517H70.7548V115.357C70.7548 115.903 70.8815 116.29 71.1348 116.517C71.3881 116.73 71.8015 116.837 72.3748 116.837C72.7348 116.837 73.1148 116.77 73.5148 116.637V118.177C72.9948 118.39 72.3615 118.497 71.6148 118.497ZM82.7517 118.497C82.1517 118.497 81.5917 118.39 81.0717 118.177C80.565 117.963 80.1583 117.643 79.8517 117.217C79.545 116.777 79.3917 116.237 79.3917 115.597C79.3917 114.69 79.6983 113.963 80.3117 113.417C80.9383 112.857 81.8983 112.577 83.1917 112.577H86.2317V112.157C86.2317 111.703 86.1583 111.343 86.0117 111.077C85.8783 110.81 85.625 110.617 85.2517 110.497C84.8917 110.377 84.3583 110.317 83.6517 110.317C82.5317 110.317 81.485 110.483 80.5117 110.817V109.197C80.9383 109.023 81.4583 108.883 82.0717 108.777C82.685 108.67 83.345 108.617 84.0517 108.617C85.4383 108.617 86.4917 108.897 87.2117 109.457C87.945 110.017 88.3117 110.93 88.3117 112.197V118.297H86.4517L86.3117 117.337C85.925 117.71 85.445 117.997 84.8717 118.197C84.3117 118.397 83.605 118.497 82.7517 118.497ZM83.3317 116.937C83.985 116.937 84.5517 116.83 85.0317 116.617C85.525 116.39 85.925 116.09 86.2317 115.717V114.057H83.2317C82.5917 114.057 82.125 114.183 81.8317 114.437C81.5517 114.677 81.4117 115.05 81.4117 115.557C81.4117 116.05 81.5783 116.403 81.9117 116.617C82.245 116.83 82.7183 116.937 83.3317 116.937ZM90.7292 118.297V108.817H92.7292L92.8492 109.917C93.3025 109.623 93.8425 109.357 94.4692 109.117C95.0958 108.877 95.7158 108.71 96.3292 108.617V110.277C95.9558 110.343 95.5492 110.443 95.1092 110.577C94.6825 110.697 94.2758 110.837 93.8892 110.997C93.5025 111.143 93.1758 111.297 92.9092 111.457V118.297H90.7292ZM102.326 118.497C100.673 118.497 99.3927 118.09 98.4861 117.277C97.5794 116.463 97.1261 115.217 97.1261 113.537C97.1261 112.017 97.5127 110.817 98.2861 109.937C99.0594 109.057 100.233 108.617 101.806 108.617C103.246 108.617 104.326 108.997 105.046 109.757C105.779 110.503 106.146 111.47 106.146 112.657V114.417H99.2061C99.3127 115.337 99.6461 115.97 100.206 116.317C100.766 116.663 101.619 116.837 102.766 116.837C103.246 116.837 103.739 116.79 104.246 116.697C104.753 116.603 105.193 116.483 105.566 116.337V117.937C105.139 118.123 104.646 118.263 104.086 118.357C103.539 118.45 102.953 118.497 102.326 118.497ZM99.2061 112.997H104.226V112.337C104.226 111.683 104.046 111.177 103.686 110.817C103.326 110.443 102.719 110.257 101.866 110.257C100.853 110.257 100.153 110.477 99.7661 110.917C99.3927 111.357 99.2061 112.05 99.2061 112.997ZM116.498 118.497C115.484 118.497 114.724 118.23 114.218 117.697C113.724 117.15 113.478 116.41 113.478 115.477V110.517H112.078V108.817H113.478V106.637L115.638 105.977V108.817H118.158L118.018 110.517H115.638V115.357C115.638 115.903 115.764 116.29 116.018 116.517C116.271 116.73 116.684 116.837 117.258 116.837C117.618 116.837 117.998 116.77 118.398 116.637V118.177C117.878 118.39 117.244 118.497 116.498 118.497ZM120.065 118.297V104.817H122.245V109.737C122.658 109.403 123.152 109.137 123.725 108.937C124.298 108.723 124.945 108.617 125.665 108.617C126.865 108.617 127.752 108.903 128.325 109.477C128.898 110.05 129.185 110.943 129.185 112.157V118.297H127.025V112.257C127.025 111.523 126.865 111.01 126.545 110.717C126.238 110.423 125.698 110.277 124.925 110.277C124.445 110.277 123.958 110.383 123.465 110.597C122.972 110.797 122.565 111.063 122.245 111.397V118.297H120.065ZM136.232 118.497C134.579 118.497 133.299 118.09 132.392 117.277C131.486 116.463 131.032 115.217 131.032 113.537C131.032 112.017 131.419 110.817 132.192 109.937C132.966 109.057 134.139 108.617 135.712 108.617C137.152 108.617 138.232 108.997 138.952 109.757C139.686 110.503 140.052 111.47 140.052 112.657V114.417H133.112C133.219 115.337 133.552 115.97 134.112 116.317C134.672 116.663 135.526 116.837 136.672 116.837C137.152 116.837 137.646 116.79 138.152 116.697C138.659 116.603 139.099 116.483 139.472 116.337V117.937C139.046 118.123 138.552 118.263 137.992 118.357C137.446 118.45 136.859 118.497 136.232 118.497ZM133.112 112.997H138.132V112.337C138.132 111.683 137.952 111.177 137.592 110.817C137.232 110.443 136.626 110.257 135.772 110.257C134.759 110.257 134.059 110.477 133.672 110.917C133.299 111.357 133.112 112.05 133.112 112.997ZM150.704 118.497C149.851 118.497 149.097 118.35 148.444 118.057C147.791 117.763 147.284 117.277 146.924 116.597C146.564 115.917 146.384 115.003 146.384 113.857C146.384 112.723 146.577 111.77 146.964 110.997C147.351 110.21 147.884 109.617 148.564 109.217C149.257 108.817 150.037 108.617 150.904 108.617C151.477 108.617 151.984 108.683 152.424 108.817C152.877 108.95 153.311 109.157 153.724 109.437V104.817H155.904V118.297H154.044L153.904 117.357C153.477 117.743 153.011 118.03 152.504 118.217C151.997 118.403 151.397 118.497 150.704 118.497ZM151.284 116.857C152.257 116.857 153.071 116.523 153.724 115.857V111.117C153.097 110.557 152.311 110.277 151.364 110.277C150.444 110.277 149.751 110.583 149.284 111.197C148.817 111.81 148.584 112.703 148.584 113.877C148.584 115.01 148.797 115.79 149.224 116.217C149.664 116.643 150.351 116.857 151.284 116.857ZM161.287 118.497C160.687 118.497 160.127 118.39 159.607 118.177C159.1 117.963 158.694 117.643 158.387 117.217C158.08 116.777 157.927 116.237 157.927 115.597C157.927 114.69 158.234 113.963 158.847 113.417C159.474 112.857 160.434 112.577 161.727 112.577H164.767V112.157C164.767 111.703 164.694 111.343 164.547 111.077C164.414 110.81 164.16 110.617 163.787 110.497C163.427 110.377 162.894 110.317 162.187 110.317C161.067 110.317 160.02 110.483 159.047 110.817V109.197C159.474 109.023 159.994 108.883 160.607 108.777C161.22 108.67 161.88 108.617 162.587 108.617C163.974 108.617 165.027 108.897 165.747 109.457C166.48 110.017 166.847 110.93 166.847 112.197V118.297H164.987L164.847 117.337C164.46 117.71 163.98 117.997 163.407 118.197C162.847 118.397 162.14 118.497 161.287 118.497ZM161.867 116.937C162.52 116.937 163.087 116.83 163.567 116.617C164.06 116.39 164.46 116.09 164.767 115.717V114.057H161.767C161.127 114.057 160.66 114.183 160.367 114.437C160.087 114.677 159.947 115.05 159.947 115.557C159.947 116.05 160.114 116.403 160.447 116.617C160.78 116.83 161.254 116.937 161.867 116.937ZM169.264 118.297V108.817H171.264L171.364 109.817C171.791 109.483 172.298 109.203 172.884 108.977C173.484 108.737 174.144 108.617 174.864 108.617C176.091 108.617 176.984 108.903 177.544 109.477C178.104 110.05 178.384 110.943 178.384 112.157V118.297H176.224V112.257C176.224 111.523 176.071 111.01 175.764 110.717C175.471 110.423 174.911 110.277 174.084 110.277C173.591 110.277 173.104 110.377 172.624 110.577C172.158 110.777 171.764 111.037 171.444 111.357V118.297H169.264ZM184.667 121.817C183.96 121.817 183.254 121.77 182.547 121.677C181.84 121.597 181.24 121.47 180.747 121.297V119.617C181.28 119.79 181.894 119.923 182.587 120.017C183.28 120.11 183.94 120.157 184.567 120.157C185.527 120.157 186.227 120.103 186.667 119.997C187.107 119.89 187.327 119.65 187.327 119.277C187.327 118.997 187.22 118.797 187.007 118.677C186.794 118.57 186.387 118.517 185.787 118.517H183.227C181.507 118.517 180.647 117.91 180.647 116.697C180.647 116.31 180.76 115.95 180.987 115.617C181.214 115.283 181.574 115.03 182.067 114.857C181.52 114.59 181.114 114.223 180.847 113.757C180.594 113.29 180.467 112.73 180.467 112.077C180.467 110.863 180.827 109.983 181.547 109.437C182.28 108.89 183.374 108.617 184.827 108.617C185.134 108.617 185.454 108.643 185.787 108.697C186.12 108.737 186.38 108.777 186.567 108.817H190.047L189.987 110.237H188.387C188.64 110.45 188.827 110.717 188.947 111.037C189.067 111.357 189.127 111.703 189.127 112.077C189.127 113.09 188.82 113.89 188.207 114.477C187.594 115.05 186.667 115.337 185.427 115.337C185.214 115.337 185.014 115.33 184.827 115.317C184.654 115.29 184.46 115.263 184.247 115.237C183.847 115.277 183.487 115.383 183.167 115.557C182.847 115.73 182.687 115.963 182.687 116.257C182.687 116.457 182.767 116.603 182.927 116.697C183.087 116.777 183.354 116.817 183.727 116.817H186.387C187.334 116.817 188.06 117.023 188.567 117.437C189.087 117.837 189.347 118.423 189.347 119.197C189.347 120.13 188.94 120.797 188.127 121.197C187.327 121.61 186.174 121.817 184.667 121.817ZM184.827 113.957C185.694 113.957 186.294 113.81 186.627 113.517C186.974 113.223 187.147 112.723 187.147 112.017C187.147 111.31 186.974 110.797 186.627 110.477C186.294 110.157 185.694 109.997 184.827 109.997C184.014 109.997 183.42 110.15 183.047 110.457C182.674 110.763 182.487 111.283 182.487 112.017C182.487 112.697 182.66 113.19 183.007 113.497C183.367 113.803 183.974 113.957 184.827 113.957ZM196.506 118.497C194.852 118.497 193.572 118.09 192.666 117.277C191.759 116.463 191.306 115.217 191.306 113.537C191.306 112.017 191.692 110.817 192.466 109.937C193.239 109.057 194.412 108.617 195.986 108.617C197.426 108.617 198.506 108.997 199.226 109.757C199.959 110.503 200.326 111.47 200.326 112.657V114.417H193.386C193.492 115.337 193.826 115.97 194.386 116.317C194.946 116.663 195.799 116.837 196.946 116.837C197.426 116.837 197.919 116.79 198.426 116.697C198.932 116.603 199.372 116.483 199.746 116.337V117.937C199.319 118.123 198.826 118.263 198.266 118.357C197.719 118.45 197.132 118.497 196.506 118.497ZM193.386 112.997H198.406V112.337C198.406 111.683 198.226 111.177 197.866 110.817C197.506 110.443 196.899 110.257 196.046 110.257C195.032 110.257 194.332 110.477 193.946 110.917C193.572 111.357 193.386 112.05 193.386 112.997ZM202.448 118.297V108.817H204.448L204.568 109.917C205.021 109.623 205.561 109.357 206.188 109.117C206.815 108.877 207.435 108.71 208.048 108.617V110.277C207.675 110.343 207.268 110.443 206.828 110.577C206.401 110.697 205.995 110.837 205.608 110.997C205.221 111.143 204.895 111.297 204.628 111.457V118.297H202.448ZM212.698 118.497C212.044 118.497 211.418 118.45 210.818 118.357C210.231 118.263 209.744 118.15 209.358 118.017V116.177C209.811 116.35 210.311 116.483 210.858 116.577C211.404 116.67 211.924 116.717 212.418 116.717C213.164 116.717 213.698 116.65 214.018 116.517C214.338 116.383 214.498 116.123 214.498 115.737C214.498 115.457 214.398 115.237 214.198 115.077C214.011 114.917 213.724 114.77 213.338 114.637C212.964 114.503 212.484 114.343 211.898 114.157C211.338 113.97 210.851 113.77 210.438 113.557C210.024 113.33 209.704 113.043 209.478 112.697C209.251 112.35 209.138 111.897 209.138 111.337C209.138 110.47 209.451 109.803 210.078 109.337C210.704 108.857 211.711 108.617 213.098 108.617C213.644 108.617 214.164 108.657 214.658 108.737C215.151 108.817 215.571 108.917 215.918 109.037V110.857C215.544 110.71 215.131 110.597 214.678 110.517C214.238 110.437 213.824 110.397 213.438 110.397C212.744 110.397 212.218 110.457 211.858 110.577C211.511 110.697 211.338 110.937 211.338 111.297C211.338 111.67 211.518 111.937 211.878 112.097C212.251 112.243 212.844 112.45 213.658 112.717C214.404 112.943 214.998 113.183 215.438 113.437C215.878 113.69 216.191 113.997 216.378 114.357C216.578 114.703 216.678 115.157 216.678 115.717C216.678 116.65 216.338 117.35 215.658 117.817C214.978 118.27 213.991 118.497 212.698 118.497ZM226.384 118.497C225.784 118.497 225.224 118.39 224.704 118.177C224.198 117.963 223.791 117.643 223.484 117.217C223.178 116.777 223.024 116.237 223.024 115.597C223.024 114.69 223.331 113.963 223.944 113.417C224.571 112.857 225.531 112.577 226.824 112.577H229.864V112.157C229.864 111.703 229.791 111.343 229.644 111.077C229.511 110.81 229.258 110.617 228.884 110.497C228.524 110.377 227.991 110.317 227.284 110.317C226.164 110.317 225.118 110.483 224.144 110.817V109.197C224.571 109.023 225.091 108.883 225.704 108.777C226.318 108.67 226.978 108.617 227.684 108.617C229.071 108.617 230.124 108.897 230.844 109.457C231.578 110.017 231.944 110.93 231.944 112.197V118.297H230.084L229.944 117.337C229.558 117.71 229.078 117.997 228.504 118.197C227.944 118.397 227.238 118.497 226.384 118.497ZM226.964 116.937C227.618 116.937 228.184 116.83 228.664 116.617C229.158 116.39 229.558 116.09 229.864 115.717V114.057H226.864C226.224 114.057 225.758 114.183 225.464 114.437C225.184 114.677 225.044 115.05 225.044 115.557C225.044 116.05 225.211 116.403 225.544 116.617C225.878 116.83 226.351 116.937 226.964 116.937ZM234.362 118.297V108.817H236.362L236.462 109.817C236.889 109.483 237.395 109.203 237.982 108.977C238.582 108.737 239.242 108.617 239.962 108.617C241.189 108.617 242.082 108.903 242.642 109.477C243.202 110.05 243.482 110.943 243.482 112.157V118.297H241.322V112.257C241.322 111.523 241.169 111.01 240.862 110.717C240.569 110.423 240.009 110.277 239.182 110.277C238.689 110.277 238.202 110.377 237.722 110.577C237.255 110.777 236.862 111.037 236.542 111.357V118.297H234.362ZM249.649 118.497C248.796 118.497 248.043 118.35 247.389 118.057C246.736 117.763 246.229 117.277 245.869 116.597C245.509 115.917 245.329 115.003 245.329 113.857C245.329 112.723 245.523 111.77 245.909 110.997C246.296 110.21 246.829 109.617 247.509 109.217C248.203 108.817 248.983 108.617 249.849 108.617C250.423 108.617 250.929 108.683 251.369 108.817C251.823 108.95 252.256 109.157 252.669 109.437V104.817H254.849V118.297H252.989L252.849 117.357C252.423 117.743 251.956 118.03 251.449 118.217C250.943 118.403 250.343 118.497 249.649 118.497ZM250.229 116.857C251.203 116.857 252.016 116.523 252.669 115.857V111.117C252.043 110.557 251.256 110.277 250.309 110.277C249.389 110.277 248.696 110.583 248.229 111.197C247.763 111.81 247.529 112.703 247.529 113.877C247.529 115.01 247.743 115.79 248.169 116.217C248.609 116.643 249.296 116.857 250.229 116.857ZM49.3378 148.497C47.6844 148.497 46.4044 148.09 45.4978 147.277C44.5911 146.463 44.1378 145.217 44.1378 143.537C44.1378 142.017 44.5244 140.817 45.2978 139.937C46.0711 139.057 47.2444 138.617 48.8178 138.617C50.2578 138.617 51.3378 138.997 52.0578 139.757C52.7911 140.503 53.1578 141.47 53.1578 142.657V144.417H46.2178C46.3244 145.337 46.6578 145.97 47.2178 146.317C47.7778 146.663 48.6311 146.837 49.7778 146.837C50.2578 146.837 50.7511 146.79 51.2578 146.697C51.7644 146.603 52.2044 146.483 52.5778 146.337V147.937C52.1511 148.123 51.6578 148.263 51.0978 148.357C50.5511 148.45 49.9644 148.497 49.3378 148.497ZM46.2178 142.997H51.2378V142.337C51.2378 141.683 51.0578 141.177 50.6978 140.817C50.3378 140.443 49.7311 140.257 48.8778 140.257C47.8644 140.257 47.1644 140.477 46.7778 140.917C46.4044 141.357 46.2178 142.05 46.2178 142.997ZM55.86 148.297V140.517H54.48V138.817H55.86V137.657C55.86 136.71 56.12 135.95 56.64 135.377C57.1733 134.79 57.96 134.497 59 134.497C59.3866 134.497 59.74 134.53 60.06 134.597C60.38 134.65 60.6733 134.73 60.94 134.837V136.397C60.5266 136.25 60.1066 136.177 59.68 136.177C59.0533 136.177 58.62 136.29 58.38 136.517C58.14 136.743 58.02 137.13 58.02 137.677V138.817H60.5L60.4 140.517H58.02V148.297H55.86ZM62.2662 148.297V140.517H60.8862V138.817H62.2662V137.657C62.2662 136.71 62.5262 135.95 63.0462 135.377C63.5795 134.79 64.3662 134.497 65.4062 134.497C65.7929 134.497 66.1462 134.53 66.4662 134.597C66.7862 134.65 67.0795 134.73 67.3462 134.837V136.397C66.9329 136.25 66.5129 136.177 66.0862 136.177C65.4595 136.177 65.0262 136.29 64.7862 136.517C64.5462 136.743 64.4262 137.13 64.4262 137.677V138.817H66.9062L66.8062 140.517H64.4262V148.297H62.2662ZM72.9901 148.497C71.3368 148.497 70.0568 148.09 69.1501 147.277C68.2434 146.463 67.7901 145.217 67.7901 143.537C67.7901 142.017 68.1768 140.817 68.9501 139.937C69.7234 139.057 70.8968 138.617 72.4701 138.617C73.9101 138.617 74.9901 138.997 75.7101 139.757C76.4434 140.503 76.8101 141.47 76.8101 142.657V144.417H69.8701C69.9768 145.337 70.3101 145.97 70.8701 146.317C71.4301 146.663 72.2834 146.837 73.4301 146.837C73.9101 146.837 74.4034 146.79 74.9101 146.697C75.4168 146.603 75.8568 146.483 76.2301 146.337V147.937C75.8034 148.123 75.3101 148.263 74.7501 148.357C74.2034 148.45 73.6168 148.497 72.9901 148.497ZM69.8701 142.997H74.8901V142.337C74.8901 141.683 74.7101 141.177 74.3501 140.817C73.9901 140.443 73.3834 140.257 72.5301 140.257C71.5168 140.257 70.8168 140.477 70.4301 140.917C70.0568 141.357 69.8701 142.05 69.8701 142.997ZM83.5923 148.497C81.9256 148.497 80.6656 148.077 79.8123 147.237C78.959 146.383 78.5323 145.157 78.5323 143.557C78.5323 141.89 78.999 140.65 79.9323 139.837C80.879 139.023 82.139 138.617 83.7123 138.617C84.3656 138.617 84.9123 138.663 85.3523 138.757C85.8056 138.85 86.239 138.997 86.6523 139.197V140.817C85.959 140.47 85.119 140.297 84.1323 140.297C83.039 140.297 82.199 140.543 81.6123 141.037C81.0256 141.517 80.7323 142.357 80.7323 143.557C80.7323 144.69 80.9923 145.523 81.5123 146.057C82.0323 146.577 82.8923 146.837 84.0923 146.837C85.039 146.837 85.899 146.657 86.6723 146.297V147.957C86.2323 148.13 85.759 148.263 85.2523 148.357C84.759 148.45 84.2056 148.497 83.5923 148.497ZM92.025 148.497C91.0116 148.497 90.2516 148.23 89.745 147.697C89.2516 147.15 89.005 146.41 89.005 145.477V140.517H87.605V138.817H89.005V136.637L91.165 135.977V138.817H93.685L93.545 140.517H91.165V145.357C91.165 145.903 91.2916 146.29 91.545 146.517C91.7983 146.73 92.2116 146.837 92.785 146.837C93.145 146.837 93.525 146.77 93.925 146.637V148.177C93.405 148.39 92.7716 148.497 92.025 148.497ZM98.7525 148.497C98.0991 148.497 97.4725 148.45 96.8725 148.357C96.2858 148.263 95.7991 148.15 95.4125 148.017V146.177C95.8658 146.35 96.3658 146.483 96.9125 146.577C97.4591 146.67 97.9791 146.717 98.4725 146.717C99.2191 146.717 99.7525 146.65 100.072 146.517C100.392 146.383 100.552 146.123 100.552 145.737C100.552 145.457 100.452 145.237 100.252 145.077C100.066 144.917 99.7791 144.77 99.3925 144.637C99.0191 144.503 98.5391 144.343 97.9525 144.157C97.3925 143.97 96.9058 143.77 96.4925 143.557C96.0791 143.33 95.7591 143.043 95.5325 142.697C95.3058 142.35 95.1925 141.897 95.1925 141.337C95.1925 140.47 95.5058 139.803 96.1325 139.337C96.7591 138.857 97.7658 138.617 99.1525 138.617C99.6991 138.617 100.219 138.657 100.712 138.737C101.206 138.817 101.626 138.917 101.972 139.037V140.857C101.599 140.71 101.186 140.597 100.732 140.517C100.292 140.437 99.8791 140.397 99.4925 140.397C98.7991 140.397 98.2725 140.457 97.9125 140.577C97.5658 140.697 97.3925 140.937 97.3925 141.297C97.3925 141.67 97.5725 141.937 97.9325 142.097C98.3058 142.243 98.8991 142.45 99.7125 142.717C100.459 142.943 101.052 143.183 101.492 143.437C101.932 143.69 102.246 143.997 102.432 144.357C102.632 144.703 102.732 145.157 102.732 145.717C102.732 146.65 102.392 147.35 101.712 147.817C101.032 148.27 100.046 148.497 98.7525 148.497ZM114.019 148.497C112.313 148.497 111.059 148.07 110.259 147.217C109.473 146.363 109.079 145.143 109.079 143.557C109.079 141.97 109.479 140.75 110.279 139.897C111.079 139.043 112.326 138.617 114.019 138.617C115.726 138.617 116.979 139.043 117.779 139.897C118.579 140.75 118.979 141.97 118.979 143.557C118.979 145.143 118.579 146.363 117.779 147.217C116.993 148.07 115.739 148.497 114.019 148.497ZM114.019 146.657C115.019 146.657 115.726 146.417 116.139 145.937C116.566 145.443 116.779 144.65 116.779 143.557C116.779 142.463 116.566 141.677 116.139 141.197C115.726 140.717 115.019 140.477 114.019 140.477C113.033 140.477 112.326 140.717 111.899 141.197C111.486 141.677 111.279 142.463 111.279 143.557C111.279 144.65 111.486 145.443 111.899 145.937C112.326 146.417 113.033 146.657 114.019 146.657ZM121.68 148.297V140.517H120.3V138.817H121.68V137.657C121.68 136.71 121.94 135.95 122.46 135.377C122.994 134.79 123.78 134.497 124.82 134.497C125.207 134.497 125.56 134.53 125.88 134.597C126.2 134.65 126.494 134.73 126.76 134.837V136.397C126.347 136.25 125.927 136.177 125.5 136.177C124.874 136.177 124.44 136.29 124.2 136.517C123.96 136.743 123.84 137.13 123.84 137.677V138.817H126.32L126.22 140.517H123.84V148.297H121.68ZM137.457 148.497C135.75 148.497 134.497 148.07 133.697 147.217C132.91 146.363 132.517 145.143 132.517 143.557C132.517 141.97 132.917 140.75 133.717 139.897C134.517 139.043 135.763 138.617 137.457 138.617C139.163 138.617 140.417 139.043 141.217 139.897C142.017 140.75 142.417 141.97 142.417 143.557C142.417 145.143 142.017 146.363 141.217 147.217C140.43 148.07 139.177 148.497 137.457 148.497ZM137.457 146.657C138.457 146.657 139.163 146.417 139.577 145.937C140.003 145.443 140.217 144.65 140.217 143.557C140.217 142.463 140.003 141.677 139.577 141.197C139.163 140.717 138.457 140.477 137.457 140.477C136.47 140.477 135.763 140.717 135.337 141.197C134.923 141.677 134.717 142.463 134.717 143.557C134.717 144.65 134.923 145.443 135.337 145.937C135.763 146.417 136.47 146.657 137.457 146.657ZM146.784 148.297L143.044 138.817H145.304L147.964 146.177L150.624 138.817H152.864L149.144 148.297H146.784ZM158.713 148.497C157.059 148.497 155.779 148.09 154.873 147.277C153.966 146.463 153.513 145.217 153.513 143.537C153.513 142.017 153.899 140.817 154.673 139.937C155.446 139.057 156.619 138.617 158.193 138.617C159.633 138.617 160.713 138.997 161.433 139.757C162.166 140.503 162.533 141.47 162.533 142.657V144.417H155.593C155.699 145.337 156.033 145.97 156.593 146.317C157.153 146.663 158.006 146.837 159.153 146.837C159.633 146.837 160.126 146.79 160.633 146.697C161.139 146.603 161.579 146.483 161.953 146.337V147.937C161.526 148.123 161.033 148.263 160.473 148.357C159.926 148.45 159.339 148.497 158.713 148.497ZM155.593 142.997H160.613V142.337C160.613 141.683 160.433 141.177 160.073 140.817C159.713 140.443 159.106 140.257 158.253 140.257C157.239 140.257 156.539 140.477 156.153 140.917C155.779 141.357 155.593 142.05 155.593 142.997ZM164.655 148.297V138.817H166.655L166.775 139.917C167.228 139.623 167.768 139.357 168.395 139.117C169.022 138.877 169.642 138.71 170.255 138.617V140.277C169.882 140.343 169.475 140.443 169.035 140.577C168.608 140.697 168.202 140.837 167.815 140.997C167.428 141.143 167.102 141.297 166.835 141.457V148.297H164.655ZM175.372 148.497C174.519 148.497 173.765 148.35 173.112 148.057C172.459 147.763 171.952 147.277 171.592 146.597C171.232 145.917 171.052 145.003 171.052 143.857C171.052 142.723 171.245 141.77 171.632 140.997C172.019 140.21 172.552 139.617 173.232 139.217C173.925 138.817 174.705 138.617 175.572 138.617C176.145 138.617 176.652 138.683 177.092 138.817C177.545 138.95 177.979 139.157 178.392 139.437V134.817H180.572V148.297H178.712L178.572 147.357C178.145 147.743 177.679 148.03 177.172 148.217C176.665 148.403 176.065 148.497 175.372 148.497ZM175.952 146.857C176.925 146.857 177.739 146.523 178.392 145.857V141.117C177.765 140.557 176.979 140.277 176.032 140.277C175.112 140.277 174.419 140.583 173.952 141.197C173.485 141.81 173.252 142.703 173.252 143.877C173.252 145.01 173.465 145.79 173.892 146.217C174.332 146.643 175.019 146.857 175.952 146.857ZM187.437 148.497C185.73 148.497 184.477 148.07 183.677 147.217C182.89 146.363 182.497 145.143 182.497 143.557C182.497 141.97 182.897 140.75 183.697 139.897C184.497 139.043 185.744 138.617 187.437 138.617C189.144 138.617 190.397 139.043 191.197 139.897C191.997 140.75 192.397 141.97 192.397 143.557C192.397 145.143 191.997 146.363 191.197 147.217C190.41 148.07 189.157 148.497 187.437 148.497ZM187.437 146.657C188.437 146.657 189.144 146.417 189.557 145.937C189.984 145.443 190.197 144.65 190.197 143.557C190.197 142.463 189.984 141.677 189.557 141.197C189.144 140.717 188.437 140.477 187.437 140.477C186.45 140.477 185.744 140.717 185.317 141.197C184.904 141.677 184.697 142.463 184.697 143.557C184.697 144.65 184.904 145.443 185.317 145.937C185.744 146.417 186.45 146.657 187.437 146.657ZM197.581 148.497C196.927 148.497 196.301 148.45 195.701 148.357C195.114 148.263 194.627 148.15 194.241 148.017V146.177C194.694 146.35 195.194 146.483 195.741 146.577C196.287 146.67 196.807 146.717 197.301 146.717C198.047 146.717 198.581 146.65 198.901 146.517C199.221 146.383 199.381 146.123 199.381 145.737C199.381 145.457 199.281 145.237 199.081 145.077C198.894 144.917 198.607 144.77 198.221 144.637C197.847 144.503 197.367 144.343 196.781 144.157C196.221 143.97 195.734 143.77 195.321 143.557C194.907 143.33 194.587 143.043 194.361 142.697C194.134 142.35 194.021 141.897 194.021 141.337C194.021 140.47 194.334 139.803 194.961 139.337C195.587 138.857 196.594 138.617 197.981 138.617C198.527 138.617 199.047 138.657 199.541 138.737C200.034 138.817 200.454 138.917 200.801 139.037V140.857C200.427 140.71 200.014 140.597 199.561 140.517C199.121 140.437 198.707 140.397 198.321 140.397C197.627 140.397 197.101 140.457 196.741 140.577C196.394 140.697 196.221 140.937 196.221 141.297C196.221 141.67 196.401 141.937 196.761 142.097C197.134 142.243 197.727 142.45 198.541 142.717C199.287 142.943 199.881 143.183 200.321 143.437C200.761 143.69 201.074 143.997 201.261 144.357C201.461 144.703 201.561 145.157 201.561 145.717C201.561 146.65 201.221 147.35 200.541 147.817C199.861 148.27 198.874 148.497 197.581 148.497ZM204.498 136.837V135.037H206.878V136.837H204.498ZM204.678 148.297V140.477H203.238L203.438 138.817H206.858V148.297H204.678ZM209.401 148.297V138.817H211.401L211.501 139.817C211.928 139.483 212.434 139.203 213.021 138.977C213.621 138.737 214.281 138.617 215.001 138.617C216.228 138.617 217.121 138.903 217.681 139.477C218.241 140.05 218.521 140.943 218.521 142.157V148.297H216.361V142.257C216.361 141.523 216.208 141.01 215.901 140.717C215.608 140.423 215.048 140.277 214.221 140.277C213.728 140.277 213.241 140.377 212.761 140.577C212.294 140.777 211.901 141.037 211.581 141.357V148.297H209.401ZM224.804 151.817C224.097 151.817 223.39 151.77 222.684 151.677C221.977 151.597 221.377 151.47 220.884 151.297V149.617C221.417 149.79 222.03 149.923 222.724 150.017C223.417 150.11 224.077 150.157 224.704 150.157C225.664 150.157 226.364 150.103 226.804 149.997C227.244 149.89 227.464 149.65 227.464 149.277C227.464 148.997 227.357 148.797 227.144 148.677C226.93 148.57 226.524 148.517 225.924 148.517H223.364C221.644 148.517 220.784 147.91 220.784 146.697C220.784 146.31 220.897 145.95 221.124 145.617C221.35 145.283 221.71 145.03 222.204 144.857C221.657 144.59 221.25 144.223 220.984 143.757C220.73 143.29 220.604 142.73 220.604 142.077C220.604 140.863 220.964 139.983 221.684 139.437C222.417 138.89 223.51 138.617 224.964 138.617C225.27 138.617 225.59 138.643 225.924 138.697C226.257 138.737 226.517 138.777 226.704 138.817H230.184L230.124 140.237H228.524C228.777 140.45 228.964 140.717 229.084 141.037C229.204 141.357 229.264 141.703 229.264 142.077C229.264 143.09 228.957 143.89 228.344 144.477C227.73 145.05 226.804 145.337 225.564 145.337C225.35 145.337 225.15 145.33 224.964 145.317C224.79 145.29 224.597 145.263 224.384 145.237C223.984 145.277 223.624 145.383 223.304 145.557C222.984 145.73 222.824 145.963 222.824 146.257C222.824 146.457 222.904 146.603 223.064 146.697C223.224 146.777 223.49 146.817 223.864 146.817H226.524C227.47 146.817 228.197 147.023 228.704 147.437C229.224 147.837 229.484 148.423 229.484 149.197C229.484 150.13 229.077 150.797 228.264 151.197C227.464 151.61 226.31 151.817 224.804 151.817ZM224.964 143.957C225.83 143.957 226.43 143.81 226.764 143.517C227.11 143.223 227.284 142.723 227.284 142.017C227.284 141.31 227.11 140.797 226.764 140.477C226.43 140.157 225.83 139.997 224.964 139.997C224.15 139.997 223.557 140.15 223.184 140.457C222.81 140.763 222.624 141.283 222.624 142.017C222.624 142.697 222.797 143.19 223.144 143.497C223.504 143.803 224.11 143.957 224.964 143.957ZM233.858 145.057V144.617C233.858 144.083 233.971 143.623 234.198 143.237C234.424 142.85 234.704 142.503 235.038 142.197C235.384 141.89 235.731 141.597 236.078 141.317C236.504 140.97 236.864 140.63 237.158 140.297C237.451 139.95 237.598 139.53 237.598 139.037C237.598 138.33 237.391 137.83 236.978 137.537C236.564 137.23 235.838 137.077 234.798 137.077C234.238 137.077 233.678 137.15 233.118 137.297C232.558 137.43 232.064 137.597 231.638 137.797V135.957C232.091 135.73 232.638 135.55 233.278 135.417C233.931 135.283 234.624 135.217 235.358 135.217C236.824 135.217 237.931 135.543 238.678 136.197C239.424 136.837 239.798 137.73 239.798 138.877C239.798 139.623 239.618 140.23 239.258 140.697C238.911 141.15 238.444 141.617 237.858 142.097C237.498 142.403 237.178 142.677 236.898 142.917C236.631 143.157 236.418 143.417 236.258 143.697C236.111 143.963 236.038 144.303 236.038 144.717V145.057H233.858ZM233.778 148.297V146.657H236.098V148.297H233.778Z" fill="black"/>
</svg>
