<svg width="343" height="345" viewBox="0 0 343 345" fill="none" xmlns="http://www.w3.org/2000/svg">
<path d="M190.379 212.238C170.687 212.238 152.815 204.787 140.735 192.121C128.655 204.787 110.784 212.238 91.0919 212.238C58.6583 212.238 31.6854 191.227 26.0592 163.658C13.5623 159.306 2.81609 151.657 -4.77224 141.712C-12.3606 131.768 -16.4373 119.991 -16.4686 107.925C-16.4686 92.1166 -9.49491 76.9552 2.91833 65.7766C15.3316 54.5981 32.1675 48.3181 49.7225 48.3181C54.0249 48.3181 57.9964 48.7651 62.4643 49.3612C74.5442 39.526 90.2646 33.4162 107.64 33.4162C127.332 33.4162 145.203 40.8671 157.283 53.5337C169.363 40.8671 187.235 33.4162 206.926 33.4162C239.36 33.4162 266.333 54.4278 271.959 81.9962C284.456 86.3484 295.202 93.9976 302.791 103.942C310.379 113.887 314.456 125.663 314.487 137.729C314.487 153.538 307.513 168.699 295.1 179.878C282.687 191.056 265.851 197.336 248.296 197.336L235.554 196.293C223.474 206.128 207.754 212.238 190.379 212.238Z" fill="#BBF9FB"/>
<path d="M141.07 191.801L140.735 191.45L140.4 191.801C128.416 204.368 110.669 211.776 91.0919 211.776C58.8479 211.776 32.089 190.89 26.5125 163.566L26.4599 163.308L26.2114 163.221C13.7949 158.897 3.12565 151.3 -4.4044 141.432C-11.9337 131.564 -15.9747 119.886 -16.0059 107.925C-16.0057 92.2555 -9.09393 77.2167 3.22796 66.1205C15.5516 55.0226 32.2755 48.7808 49.7225 48.7808C53.9929 48.7808 57.9393 49.2243 62.4031 49.8198L62.6013 49.8463L62.7564 49.72C74.7567 39.9496 90.3748 33.8789 107.64 33.8789C127.217 33.8789 144.963 41.2861 156.948 53.853L157.283 54.2041L157.618 53.853C169.603 41.2861 187.349 33.8789 206.926 33.8789C239.17 33.8789 265.929 54.7641 271.506 82.0887L271.558 82.3466L271.807 82.4332C284.223 86.7573 294.893 94.3546 302.423 104.223C309.952 114.09 313.993 125.769 314.024 137.73C314.024 153.399 307.112 168.438 294.79 179.534C282.471 190.628 265.755 196.869 248.315 196.874L235.592 195.832L235.406 195.817L235.262 195.934C223.262 205.705 207.644 211.776 190.379 211.776C170.802 211.776 153.055 204.368 141.07 191.801Z" stroke="#15C6D2" stroke-opacity="0.27" stroke-width="0.925393"/>
<ellipse cx="15.9069" cy="14.1949" rx="15.9069" ry="14.1949" transform="matrix(0.989883 0.141883 -0.179273 0.983799 58.6844 211.81)" fill="#BBF9FB"/>
<path d="M87.1756 230.224C85.8244 237.639 77.9181 242.762 69.4235 241.544C60.9289 240.326 55.2445 233.256 56.5957 225.841C57.9469 218.426 65.8532 213.303 74.3478 214.521C82.8425 215.738 88.5268 222.809 87.1756 230.224Z" stroke="#15C6D2" stroke-opacity="0.27" stroke-width="0.921368"/>
<ellipse cx="10.7606" cy="9.60244" rx="10.7606" ry="9.60244" transform="matrix(0.989883 0.141883 -0.179273 0.983799 24.8817 235.625)" fill="#BBF9FB"/>
<path d="M44.0076 248.06C43.1111 252.98 37.8542 256.406 32.173 255.592C26.4919 254.778 22.7197 250.057 23.6163 245.137C24.5128 240.217 29.7697 236.79 35.4508 237.605C41.1319 238.419 44.9041 243.14 44.0076 248.06Z" stroke="#15C6D2" stroke-opacity="0.27" stroke-width="0.921368"/>
<ellipse cx="7.01775" cy="6.26246" rx="7.01775" ry="6.26246" transform="matrix(0.989883 0.141883 -0.179273 0.983799 -10.914 233.866)" fill="#BBF9FB"/>
<path d="M1.4008 241.953C0.834957 245.058 -2.49509 247.251 -6.13004 246.73C-9.76498 246.209 -12.1465 243.197 -11.5807 240.092C-11.0148 236.987 -7.68478 234.794 -4.04983 235.315C-0.414889 235.836 1.96664 238.848 1.4008 241.953Z" stroke="#15C6D2" stroke-opacity="0.27" stroke-width="0.921368"/>
<path d="M31.4542 102L36.3742 89.12H38.8142L43.6942 102H41.4542L40.1742 98.68H34.9942L33.7142 102H31.4542ZM35.3342 97H39.8142L37.5742 91.1L35.3342 97ZM45.8381 102V92.52H47.8381L47.9581 93.62C48.4115 93.3267 48.9515 93.06 49.5781 92.82C50.2048 92.58 50.8248 92.4133 51.4381 92.32V93.98C51.0648 94.0467 50.6581 94.1467 50.2181 94.28C49.7915 94.4 49.3848 94.54 48.9981 94.7C48.6115 94.8467 48.2848 95 48.0181 95.16V102H45.8381ZM57.435 102.2C55.7817 102.2 54.5017 101.793 53.595 100.98C52.6883 100.167 52.235 98.92 52.235 97.24C52.235 95.72 52.6217 94.52 53.395 93.64C54.1683 92.76 55.3417 92.32 56.915 92.32C58.355 92.32 59.435 92.7 60.155 93.46C60.8883 94.2067 61.255 95.1733 61.255 96.36V98.12H54.315C54.4217 99.04 54.755 99.6733 55.315 100.02C55.875 100.367 56.7283 100.54 57.875 100.54C58.355 100.54 58.8483 100.493 59.355 100.4C59.8617 100.307 60.3017 100.187 60.675 100.04V101.64C60.2483 101.827 59.755 101.967 59.195 102.06C58.6483 102.153 58.0617 102.2 57.435 102.2ZM54.315 96.7H59.335V96.04C59.335 95.3867 59.155 94.88 58.795 94.52C58.435 94.1467 57.8283 93.96 56.975 93.96C55.9617 93.96 55.2617 94.18 54.875 94.62C54.5017 95.06 54.315 95.7533 54.315 96.7ZM70.1266 105.52C69.4066 105.52 68.7932 105.427 68.2866 105.24V103.62C68.5132 103.7 68.7199 103.753 68.9066 103.78C69.1066 103.807 69.3066 103.82 69.5066 103.82C69.9199 103.82 70.2532 103.753 70.5066 103.62C70.7599 103.487 70.9799 103.273 71.1666 102.98C71.3666 102.7 71.5799 102.333 71.8066 101.88L67.5866 92.52H69.8466L72.8866 99.56L75.9666 92.52H78.2066L74.3466 101.46C74.0132 102.26 73.6532 102.96 73.2666 103.56C72.8932 104.173 72.4532 104.653 71.9466 105C71.4532 105.347 70.8466 105.52 70.1266 105.52ZM83.5813 102.2C81.8746 102.2 80.6213 101.773 79.8213 100.92C79.0346 100.067 78.6413 98.8467 78.6413 97.26C78.6413 95.6733 79.0413 94.4533 79.8413 93.6C80.6413 92.7467 81.8879 92.32 83.5813 92.32C85.2879 92.32 86.5413 92.7467 87.3413 93.6C88.1413 94.4533 88.5413 95.6733 88.5413 97.26C88.5413 98.8467 88.1413 100.067 87.3413 100.92C86.5546 101.773 85.3013 102.2 83.5813 102.2ZM83.5813 100.36C84.5813 100.36 85.2879 100.12 85.7013 99.64C86.1279 99.1467 86.3413 98.3533 86.3413 97.26C86.3413 96.1667 86.1279 95.38 85.7013 94.9C85.2879 94.42 84.5813 94.18 83.5813 94.18C82.5946 94.18 81.8879 94.42 81.4613 94.9C81.0479 95.38 80.8413 96.1667 80.8413 97.26C80.8413 98.3533 81.0479 99.1467 81.4613 99.64C81.8879 100.12 82.5946 100.36 83.5813 100.36ZM94.0823 102.2C92.949 102.2 92.0757 101.887 91.4623 101.26C90.8623 100.633 90.5623 99.7133 90.5623 98.5V92.52H92.7423V98.5C92.7423 99.2067 92.9157 99.7267 93.2623 100.06C93.609 100.393 94.1423 100.56 94.8623 100.56C95.3957 100.56 95.889 100.46 96.3423 100.26C96.7957 100.06 97.189 99.7933 97.5223 99.46V92.52H99.6823V102H97.7023L97.6023 101.02C97.1757 101.353 96.669 101.633 96.0823 101.86C95.4957 102.087 94.829 102.2 94.0823 102.2ZM111.494 102.2C109.828 102.2 108.568 101.78 107.714 100.94C106.861 100.087 106.434 98.86 106.434 97.26C106.434 95.5933 106.901 94.3533 107.834 93.54C108.781 92.7267 110.041 92.32 111.614 92.32C112.268 92.32 112.814 92.3667 113.254 92.46C113.708 92.5533 114.141 92.7 114.554 92.9V94.52C113.861 94.1733 113.021 94 112.034 94C110.941 94 110.101 94.2467 109.514 94.74C108.928 95.22 108.634 96.06 108.634 97.26C108.634 98.3933 108.894 99.2267 109.414 99.76C109.934 100.28 110.794 100.54 111.994 100.54C112.941 100.54 113.801 100.36 114.574 100V101.66C114.134 101.833 113.661 101.967 113.154 102.06C112.661 102.153 112.108 102.2 111.494 102.2ZM119.727 102.2C118.594 102.2 117.72 101.887 117.107 101.26C116.507 100.633 116.207 99.7133 116.207 98.5V92.52H118.387V98.5C118.387 99.2067 118.56 99.7267 118.907 100.06C119.254 100.393 119.787 100.56 120.507 100.56C121.04 100.56 121.534 100.46 121.987 100.26C122.44 100.06 122.834 99.7933 123.167 99.46V92.52H125.327V102H123.347L123.247 101.02C122.82 101.353 122.314 101.633 121.727 101.86C121.14 102.087 120.474 102.2 119.727 102.2ZM127.869 102V92.52H129.869L129.989 93.62C130.443 93.3267 130.983 93.06 131.609 92.82C132.236 92.58 132.856 92.4133 133.469 92.32V93.98C133.096 94.0467 132.689 94.1467 132.249 94.28C131.823 94.4 131.416 94.54 131.029 94.7C130.643 94.8467 130.316 95 130.049 95.16V102H127.869ZM135.857 90.54V88.74H138.237V90.54H135.857ZM136.037 102V94.18H134.597L134.797 92.52H138.217V102H136.037ZM145.3 102.2C143.593 102.2 142.34 101.773 141.54 100.92C140.753 100.067 140.36 98.8467 140.36 97.26C140.36 95.6733 140.76 94.4533 141.56 93.6C142.36 92.7467 143.607 92.32 145.3 92.32C147.007 92.32 148.26 92.7467 149.06 93.6C149.86 94.4533 150.26 95.6733 150.26 97.26C150.26 98.8467 149.86 100.067 149.06 100.92C148.273 101.773 147.02 102.2 145.3 102.2ZM145.3 100.36C146.3 100.36 147.007 100.12 147.42 99.64C147.847 99.1467 148.06 98.3533 148.06 97.26C148.06 96.1667 147.847 95.38 147.42 94.9C147.007 94.42 146.3 94.18 145.3 94.18C144.313 94.18 143.607 94.42 143.18 94.9C142.767 95.38 142.56 96.1667 142.56 97.26C142.56 98.3533 142.767 99.1467 143.18 99.64C143.607 100.12 144.313 100.36 145.3 100.36ZM155.801 102.2C154.668 102.2 153.794 101.887 153.181 101.26C152.581 100.633 152.281 99.7133 152.281 98.5V92.52H154.461V98.5C154.461 99.2067 154.634 99.7267 154.981 100.06C155.328 100.393 155.861 100.56 156.581 100.56C157.114 100.56 157.608 100.46 158.061 100.26C158.514 100.06 158.908 99.7933 159.241 99.46V92.52H161.401V102H159.421L159.321 101.02C158.894 101.353 158.388 101.633 157.801 101.86C157.214 102.087 156.548 102.2 155.801 102.2ZM167.104 102.2C166.45 102.2 165.824 102.153 165.224 102.06C164.637 101.967 164.15 101.853 163.764 101.72V99.88C164.217 100.053 164.717 100.187 165.264 100.28C165.81 100.373 166.33 100.42 166.824 100.42C167.57 100.42 168.104 100.353 168.424 100.22C168.744 100.087 168.904 99.8267 168.904 99.44C168.904 99.16 168.804 98.94 168.604 98.78C168.417 98.62 168.13 98.4733 167.744 98.34C167.37 98.2067 166.89 98.0467 166.304 97.86C165.744 97.6733 165.257 97.4733 164.844 97.26C164.43 97.0333 164.11 96.7467 163.884 96.4C163.657 96.0533 163.544 95.6 163.544 95.04C163.544 94.1733 163.857 93.5067 164.484 93.04C165.11 92.56 166.117 92.32 167.504 92.32C168.05 92.32 168.57 92.36 169.064 92.44C169.557 92.52 169.977 92.62 170.324 92.74V94.56C169.95 94.4133 169.537 94.3 169.084 94.22C168.644 94.14 168.23 94.1 167.844 94.1C167.15 94.1 166.624 94.16 166.264 94.28C165.917 94.4 165.744 94.64 165.744 95C165.744 95.3733 165.924 95.64 166.284 95.8C166.657 95.9467 167.25 96.1533 168.064 96.42C168.81 96.6467 169.404 96.8867 169.844 97.14C170.284 97.3933 170.597 97.7 170.784 98.06C170.984 98.4067 171.084 98.86 171.084 99.42C171.084 100.353 170.744 101.053 170.064 101.52C169.384 101.973 168.397 102.2 167.104 102.2ZM180.79 102.2C180.19 102.2 179.63 102.093 179.11 101.88C178.604 101.667 178.197 101.347 177.89 100.92C177.584 100.48 177.43 99.94 177.43 99.3C177.43 98.3933 177.737 97.6667 178.35 97.12C178.977 96.56 179.937 96.28 181.23 96.28H184.27V95.86C184.27 95.4067 184.197 95.0467 184.05 94.78C183.917 94.5133 183.664 94.32 183.29 94.2C182.93 94.08 182.397 94.02 181.69 94.02C180.57 94.02 179.524 94.1867 178.55 94.52V92.9C178.977 92.7267 179.497 92.5867 180.11 92.48C180.724 92.3733 181.384 92.32 182.09 92.32C183.477 92.32 184.53 92.6 185.25 93.16C185.984 93.72 186.35 94.6333 186.35 95.9V102H184.49L184.35 101.04C183.964 101.413 183.484 101.7 182.91 101.9C182.35 102.1 181.644 102.2 180.79 102.2ZM181.37 100.64C182.024 100.64 182.59 100.533 183.07 100.32C183.564 100.093 183.964 99.7933 184.27 99.42V97.76H181.27C180.63 97.76 180.164 97.8867 179.87 98.14C179.59 98.38 179.45 98.7533 179.45 99.26C179.45 99.7533 179.617 100.107 179.95 100.32C180.284 100.533 180.757 100.64 181.37 100.64ZM193.968 102.2C193.274 102.2 192.674 102.107 192.168 101.92C191.661 101.733 191.194 101.447 190.768 101.06L190.648 102H188.768V88.52H190.948V93.14C191.774 92.5933 192.768 92.32 193.928 92.32C195.274 92.32 196.334 92.7067 197.108 93.48C197.894 94.24 198.288 95.4733 198.288 97.18C198.288 98.9 197.901 100.167 197.128 100.98C196.354 101.793 195.301 102.2 193.968 102.2ZM193.388 100.56C194.374 100.56 195.068 100.28 195.468 99.72C195.881 99.16 196.088 98.3133 196.088 97.18C196.088 96.0067 195.868 95.18 195.428 94.7C194.988 94.22 194.294 93.98 193.348 93.98C192.361 93.98 191.561 94.2533 190.948 94.8V99.56C191.574 100.227 192.388 100.56 193.388 100.56ZM204.948 102.2C203.242 102.2 201.988 101.773 201.188 100.92C200.402 100.067 200.008 98.8467 200.008 97.26C200.008 95.6733 200.408 94.4533 201.208 93.6C202.008 92.7467 203.255 92.32 204.948 92.32C206.655 92.32 207.908 92.7467 208.708 93.6C209.508 94.4533 209.908 95.6733 209.908 97.26C209.908 98.8467 209.508 100.067 208.708 100.92C207.922 101.773 206.668 102.2 204.948 102.2ZM204.948 100.36C205.948 100.36 206.655 100.12 207.068 99.64C207.495 99.1467 207.708 98.3533 207.708 97.26C207.708 96.1667 207.495 95.38 207.068 94.9C206.655 94.42 205.948 94.18 204.948 94.18C203.962 94.18 203.255 94.42 202.828 94.9C202.415 95.38 202.208 96.1667 202.208 97.26C202.208 98.3533 202.415 99.1467 202.828 99.64C203.255 100.12 203.962 100.36 204.948 100.36ZM215.45 102.2C214.316 102.2 213.443 101.887 212.83 101.26C212.23 100.633 211.93 99.7133 211.93 98.5V92.52H214.11V98.5C214.11 99.2067 214.283 99.7267 214.63 100.06C214.976 100.393 215.51 100.56 216.23 100.56C216.763 100.56 217.256 100.46 217.71 100.26C218.163 100.06 218.556 99.7933 218.89 99.46V92.52H221.05V102H219.07L218.97 101.02C218.543 101.353 218.036 101.633 217.45 101.86C216.863 102.087 216.196 102.2 215.45 102.2ZM227.212 102.2C226.199 102.2 225.439 101.933 224.932 101.4C224.439 100.853 224.192 100.113 224.192 99.18V94.22H222.792V92.52H224.192V90.34L226.352 89.68V92.52H228.872L228.732 94.22H226.352V99.06C226.352 99.6067 226.479 99.9933 226.732 100.22C226.985 100.433 227.399 100.54 227.972 100.54C228.332 100.54 228.712 100.473 229.112 100.34V101.88C228.592 102.093 227.959 102.2 227.212 102.2ZM239.009 102.2C237.996 102.2 237.236 101.933 236.729 101.4C236.236 100.853 235.989 100.113 235.989 99.18V94.22H234.589V92.52H235.989V90.34L238.149 89.68V92.52H240.669L240.529 94.22H238.149V99.06C238.149 99.6067 238.276 99.9933 238.529 100.22C238.782 100.433 239.196 100.54 239.769 100.54C240.129 100.54 240.509 100.473 240.909 100.34V101.88C240.389 102.093 239.756 102.2 239.009 102.2ZM242.576 102V88.52H244.756V93.44C245.17 93.1067 245.663 92.84 246.236 92.64C246.81 92.4267 247.456 92.32 248.176 92.32C249.376 92.32 250.263 92.6067 250.836 93.18C251.41 93.7533 251.696 94.6467 251.696 95.86V102H249.536V95.96C249.536 95.2267 249.376 94.7133 249.056 94.42C248.75 94.1267 248.21 93.98 247.436 93.98C246.956 93.98 246.47 94.0867 245.976 94.3C245.483 94.5 245.076 94.7667 244.756 95.1V102H242.576ZM258.744 102.2C257.09 102.2 255.81 101.793 254.904 100.98C253.997 100.167 253.544 98.92 253.544 97.24C253.544 95.72 253.93 94.52 254.704 93.64C255.477 92.76 256.65 92.32 258.224 92.32C259.664 92.32 260.744 92.7 261.464 93.46C262.197 94.2067 262.564 95.1733 262.564 96.36V98.12H255.624C255.73 99.04 256.064 99.6733 256.624 100.02C257.184 100.367 258.037 100.54 259.184 100.54C259.664 100.54 260.157 100.493 260.664 100.4C261.17 100.307 261.61 100.187 261.984 100.04V101.64C261.557 101.827 261.064 101.967 260.504 102.06C259.957 102.153 259.37 102.2 258.744 102.2ZM255.624 96.7H260.644V96.04C260.644 95.3867 260.464 94.88 260.104 94.52C259.744 94.1467 259.137 93.96 258.284 93.96C257.27 93.96 256.57 94.18 256.184 94.62C255.81 95.06 255.624 95.7533 255.624 96.7ZM39.7202 132.2C38.0668 132.2 36.7868 131.793 35.8802 130.98C34.9735 130.167 34.5202 128.92 34.5202 127.24C34.5202 125.72 34.9068 124.52 35.6802 123.64C36.4535 122.76 37.6268 122.32 39.2002 122.32C40.6402 122.32 41.7202 122.7 42.4402 123.46C43.1735 124.207 43.5402 125.173 43.5402 126.36V128.12H36.6002C36.7068 129.04 37.0402 129.673 37.6002 130.02C38.1602 130.367 39.0135 130.54 40.1602 130.54C40.6402 130.54 41.1335 130.493 41.6402 130.4C42.1468 130.307 42.5868 130.187 42.9602 130.04V131.64C42.5335 131.827 42.0402 131.967 41.4802 132.06C40.9335 132.153 40.3468 132.2 39.7202 132.2ZM36.6002 126.7H41.6202V126.04C41.6202 125.387 41.4402 124.88 41.0802 124.52C40.7202 124.147 40.1135 123.96 39.2602 123.96C38.2468 123.96 37.5468 124.18 37.1602 124.62C36.7868 125.06 36.6002 125.753 36.6002 126.7ZM46.2423 132V124.22H44.8623V122.52H46.2423V121.36C46.2423 120.413 46.5023 119.653 47.0223 119.08C47.5557 118.493 48.3423 118.2 49.3823 118.2C49.769 118.2 50.1223 118.233 50.4423 118.3C50.7623 118.353 51.0557 118.433 51.3223 118.54V120.1C50.909 119.953 50.489 119.88 50.0623 119.88C49.4357 119.88 49.0023 119.993 48.7623 120.22C48.5223 120.447 48.4023 120.833 48.4023 121.38V122.52H50.8823L50.7823 124.22H48.4023V132H46.2423ZM52.6486 132V124.22H51.2686V122.52H52.6486V121.36C52.6486 120.413 52.9086 119.653 53.4286 119.08C53.9619 118.493 54.7486 118.2 55.7886 118.2C56.1753 118.2 56.5286 118.233 56.8486 118.3C57.1686 118.353 57.4619 118.433 57.7286 118.54V120.1C57.3153 119.953 56.8953 119.88 56.4686 119.88C55.8419 119.88 55.4086 119.993 55.1686 120.22C54.9286 120.447 54.8086 120.833 54.8086 121.38V122.52H57.2886L57.1886 124.22H54.8086V132H52.6486ZM63.3725 132.2C61.7192 132.2 60.4392 131.793 59.5325 130.98C58.6258 130.167 58.1725 128.92 58.1725 127.24C58.1725 125.72 58.5592 124.52 59.3325 123.64C60.1058 122.76 61.2792 122.32 62.8525 122.32C64.2925 122.32 65.3725 122.7 66.0925 123.46C66.8258 124.207 67.1925 125.173 67.1925 126.36V128.12H60.2525C60.3592 129.04 60.6925 129.673 61.2525 130.02C61.8125 130.367 62.6658 130.54 63.8125 130.54C64.2925 130.54 64.7858 130.493 65.2925 130.4C65.7992 130.307 66.2392 130.187 66.6125 130.04V131.64C66.1858 131.827 65.6925 131.967 65.1325 132.06C64.5858 132.153 63.9992 132.2 63.3725 132.2ZM60.2525 126.7H65.2725V126.04C65.2725 125.387 65.0925 124.88 64.7325 124.52C64.3725 124.147 63.7658 123.96 62.9125 123.96C61.8992 123.96 61.1992 124.18 60.8125 124.62C60.4392 125.06 60.2525 125.753 60.2525 126.7ZM73.9747 132.2C72.308 132.2 71.048 131.78 70.1947 130.94C69.3414 130.087 68.9147 128.86 68.9147 127.26C68.9147 125.593 69.3814 124.353 70.3147 123.54C71.2614 122.727 72.5214 122.32 74.0947 122.32C74.748 122.32 75.2947 122.367 75.7347 122.46C76.188 122.553 76.6214 122.7 77.0347 122.9V124.52C76.3414 124.173 75.5014 124 74.5147 124C73.4214 124 72.5814 124.247 71.9947 124.74C71.408 125.22 71.1147 126.06 71.1147 127.26C71.1147 128.393 71.3747 129.227 71.8947 129.76C72.4147 130.28 73.2747 130.54 74.4747 130.54C75.4214 130.54 76.2814 130.36 77.0547 130V131.66C76.6147 131.833 76.1414 131.967 75.6347 132.06C75.1414 132.153 74.588 132.2 73.9747 132.2ZM82.4073 132.2C81.394 132.2 80.634 131.933 80.1273 131.4C79.634 130.853 79.3873 130.113 79.3873 129.18V124.22H77.9873V122.52H79.3873V120.34L81.5473 119.68V122.52H84.0673L83.9273 124.22H81.5473V129.06C81.5473 129.607 81.674 129.993 81.9273 130.22C82.1807 130.433 82.594 130.54 83.1673 130.54C83.5273 130.54 83.9073 130.473 84.3073 130.34V131.88C83.7873 132.093 83.154 132.2 82.4073 132.2ZM89.1348 132.2C88.4815 132.2 87.8548 132.153 87.2548 132.06C86.6682 131.967 86.1815 131.853 85.7948 131.72V129.88C86.2482 130.053 86.7482 130.187 87.2948 130.28C87.8415 130.373 88.3615 130.42 88.8548 130.42C89.6015 130.42 90.1348 130.353 90.4548 130.22C90.7748 130.087 90.9348 129.827 90.9348 129.44C90.9348 129.16 90.8348 128.94 90.6348 128.78C90.4482 128.62 90.1615 128.473 89.7748 128.34C89.4015 128.207 88.9215 128.047 88.3348 127.86C87.7748 127.673 87.2882 127.473 86.8748 127.26C86.4615 127.033 86.1415 126.747 85.9148 126.4C85.6882 126.053 85.5748 125.6 85.5748 125.04C85.5748 124.173 85.8882 123.507 86.5148 123.04C87.1415 122.56 88.1482 122.32 89.5348 122.32C90.0815 122.32 90.6015 122.36 91.0948 122.44C91.5882 122.52 92.0082 122.62 92.3548 122.74V124.56C91.9815 124.413 91.5682 124.3 91.1148 124.22C90.6748 124.14 90.2615 124.1 89.8748 124.1C89.1815 124.1 88.6548 124.16 88.2948 124.28C87.9482 124.4 87.7748 124.64 87.7748 125C87.7748 125.373 87.9548 125.64 88.3148 125.8C88.6882 125.947 89.2815 126.153 90.0948 126.42C90.8415 126.647 91.4348 126.887 91.8748 127.14C92.3148 127.393 92.6282 127.7 92.8148 128.06C93.0148 128.407 93.1148 128.86 93.1148 129.42C93.1148 130.353 92.7748 131.053 92.0948 131.52C91.4148 131.973 90.4282 132.2 89.1348 132.2ZM103.782 132.2C102.928 132.2 102.175 132.053 101.522 131.76C100.868 131.467 100.362 130.98 100.002 130.3C99.6416 129.62 99.4616 128.707 99.4616 127.56C99.4616 126.427 99.6549 125.473 100.042 124.7C100.428 123.913 100.962 123.32 101.642 122.92C102.335 122.52 103.115 122.32 103.982 122.32C104.555 122.32 105.062 122.387 105.502 122.52C105.955 122.653 106.388 122.86 106.802 123.14V118.52H108.982V132H107.122L106.982 131.06C106.555 131.447 106.088 131.733 105.582 131.92C105.075 132.107 104.475 132.2 103.782 132.2ZM104.362 130.56C105.335 130.56 106.148 130.227 106.802 129.56V124.82C106.175 124.26 105.388 123.98 104.442 123.98C103.522 123.98 102.828 124.287 102.362 124.9C101.895 125.513 101.662 126.407 101.662 127.58C101.662 128.713 101.875 129.493 102.302 129.92C102.742 130.347 103.428 130.56 104.362 130.56ZM111.502 132V122.52H113.502L113.622 123.62C114.076 123.327 114.616 123.06 115.242 122.82C115.869 122.58 116.489 122.413 117.102 122.32V123.98C116.729 124.047 116.322 124.147 115.882 124.28C115.456 124.4 115.049 124.54 114.662 124.7C114.276 124.847 113.949 125 113.682 125.16V132H111.502ZM122.11 132.2C120.976 132.2 120.103 131.887 119.49 131.26C118.89 130.633 118.59 129.713 118.59 128.5V122.52H120.77V128.5C120.77 129.207 120.943 129.727 121.29 130.06C121.636 130.393 122.17 130.56 122.89 130.56C123.423 130.56 123.916 130.46 124.37 130.26C124.823 130.06 125.216 129.793 125.55 129.46V122.52H127.71V132H125.73L125.63 131.02C125.203 131.353 124.696 131.633 124.11 131.86C123.523 132.087 122.856 132.2 122.11 132.2ZM134.092 135.52C133.386 135.52 132.679 135.473 131.972 135.38C131.266 135.3 130.666 135.173 130.172 135V133.32C130.706 133.493 131.319 133.627 132.012 133.72C132.706 133.813 133.366 133.86 133.992 133.86C134.952 133.86 135.652 133.807 136.092 133.7C136.532 133.593 136.752 133.353 136.752 132.98C136.752 132.7 136.646 132.5 136.432 132.38C136.219 132.273 135.812 132.22 135.212 132.22H132.652C130.932 132.22 130.072 131.613 130.072 130.4C130.072 130.013 130.186 129.653 130.412 129.32C130.639 128.987 130.999 128.733 131.492 128.56C130.946 128.293 130.539 127.927 130.272 127.46C130.019 126.993 129.892 126.433 129.892 125.78C129.892 124.567 130.252 123.687 130.972 123.14C131.706 122.593 132.799 122.32 134.252 122.32C134.559 122.32 134.879 122.347 135.212 122.4C135.546 122.44 135.806 122.48 135.992 122.52H139.472L139.412 123.94H137.812C138.066 124.153 138.252 124.42 138.372 124.74C138.492 125.06 138.552 125.407 138.552 125.78C138.552 126.793 138.246 127.593 137.632 128.18C137.019 128.753 136.092 129.04 134.852 129.04C134.639 129.04 134.439 129.033 134.252 129.02C134.079 128.993 133.886 128.967 133.672 128.94C133.272 128.98 132.912 129.087 132.592 129.26C132.272 129.433 132.112 129.667 132.112 129.96C132.112 130.16 132.192 130.307 132.352 130.4C132.512 130.48 132.779 130.52 133.152 130.52H135.812C136.759 130.52 137.486 130.727 137.992 131.14C138.512 131.54 138.772 132.127 138.772 132.9C138.772 133.833 138.366 134.5 137.552 134.9C136.752 135.313 135.599 135.52 134.092 135.52ZM134.252 127.66C135.119 127.66 135.719 127.513 136.052 127.22C136.399 126.927 136.572 126.427 136.572 125.72C136.572 125.013 136.399 124.5 136.052 124.18C135.719 123.86 135.119 123.7 134.252 123.7C133.439 123.7 132.846 123.853 132.472 124.16C132.099 124.467 131.912 124.987 131.912 125.72C131.912 126.4 132.086 126.893 132.432 127.2C132.792 127.507 133.399 127.66 134.252 127.66ZM143.979 132.2C143.325 132.2 142.699 132.153 142.099 132.06C141.512 131.967 141.025 131.853 140.639 131.72V129.88C141.092 130.053 141.592 130.187 142.139 130.28C142.685 130.373 143.205 130.42 143.699 130.42C144.445 130.42 144.979 130.353 145.299 130.22C145.619 130.087 145.779 129.827 145.779 129.44C145.779 129.16 145.679 128.94 145.479 128.78C145.292 128.62 145.005 128.473 144.619 128.34C144.245 128.207 143.765 128.047 143.179 127.86C142.619 127.673 142.132 127.473 141.719 127.26C141.305 127.033 140.985 126.747 140.759 126.4C140.532 126.053 140.419 125.6 140.419 125.04C140.419 124.173 140.732 123.507 141.359 123.04C141.985 122.56 142.992 122.32 144.379 122.32C144.925 122.32 145.445 122.36 145.939 122.44C146.432 122.52 146.852 122.62 147.199 122.74V124.56C146.825 124.413 146.412 124.3 145.959 124.22C145.519 124.14 145.105 124.1 144.719 124.1C144.025 124.1 143.499 124.16 143.139 124.28C142.792 124.4 142.619 124.64 142.619 125C142.619 125.373 142.799 125.64 143.159 125.8C143.532 125.947 144.125 126.153 144.939 126.42C145.685 126.647 146.279 126.887 146.719 127.14C147.159 127.393 147.472 127.7 147.659 128.06C147.859 128.407 147.959 128.86 147.959 129.42C147.959 130.353 147.619 131.053 146.939 131.52C146.259 131.973 145.272 132.2 143.979 132.2ZM159.365 132.2C157.699 132.2 156.439 131.78 155.585 130.94C154.732 130.087 154.305 128.86 154.305 127.26C154.305 125.593 154.772 124.353 155.705 123.54C156.652 122.727 157.912 122.32 159.485 122.32C160.139 122.32 160.685 122.367 161.125 122.46C161.579 122.553 162.012 122.7 162.425 122.9V124.52C161.732 124.173 160.892 124 159.905 124C158.812 124 157.972 124.247 157.385 124.74C156.799 125.22 156.505 126.06 156.505 127.26C156.505 128.393 156.765 129.227 157.285 129.76C157.805 130.28 158.665 130.54 159.865 130.54C160.812 130.54 161.672 130.36 162.445 130V131.66C162.005 131.833 161.532 131.967 161.025 132.06C160.532 132.153 159.979 132.2 159.365 132.2ZM167.138 132.2C166.538 132.2 165.978 132.093 165.458 131.88C164.951 131.667 164.545 131.347 164.238 130.92C163.931 130.48 163.778 129.94 163.778 129.3C163.778 128.393 164.085 127.667 164.698 127.12C165.325 126.56 166.285 126.28 167.578 126.28H170.618V125.86C170.618 125.407 170.545 125.047 170.398 124.78C170.265 124.513 170.011 124.32 169.638 124.2C169.278 124.08 168.745 124.02 168.038 124.02C166.918 124.02 165.871 124.187 164.898 124.52V122.9C165.325 122.727 165.845 122.587 166.458 122.48C167.071 122.373 167.731 122.32 168.438 122.32C169.825 122.32 170.878 122.6 171.598 123.16C172.331 123.72 172.698 124.633 172.698 125.9V132H170.838L170.698 131.04C170.311 131.413 169.831 131.7 169.258 131.9C168.698 132.1 167.991 132.2 167.138 132.2ZM167.718 130.64C168.371 130.64 168.938 130.533 169.418 130.32C169.911 130.093 170.311 129.793 170.618 129.42V127.76H167.618C166.978 127.76 166.511 127.887 166.218 128.14C165.938 128.38 165.798 128.753 165.798 129.26C165.798 129.753 165.965 130.107 166.298 130.32C166.631 130.533 167.105 130.64 167.718 130.64ZM175.115 132V122.52H177.115L177.215 123.52C177.642 123.187 178.149 122.907 178.735 122.68C179.335 122.44 179.995 122.32 180.715 122.32C181.942 122.32 182.835 122.607 183.395 123.18C183.955 123.753 184.235 124.647 184.235 125.86V132H182.075V125.96C182.075 125.227 181.922 124.713 181.615 124.42C181.322 124.127 180.762 123.98 179.935 123.98C179.442 123.98 178.955 124.08 178.475 124.28C178.009 124.48 177.615 124.74 177.295 125.06V132H175.115ZM191.287 132V118.52H193.467V123.44C193.881 123.107 194.374 122.84 194.947 122.64C195.521 122.427 196.167 122.32 196.887 122.32C198.087 122.32 198.974 122.607 199.547 123.18C200.121 123.753 200.407 124.647 200.407 125.86V132H198.247V125.96C198.247 125.227 198.087 124.713 197.767 124.42C197.461 124.127 196.921 123.98 196.147 123.98C195.667 123.98 195.181 124.087 194.687 124.3C194.194 124.5 193.787 124.767 193.467 125.1V132H191.287ZM205.517 132.2C204.917 132.2 204.357 132.093 203.837 131.88C203.33 131.667 202.924 131.347 202.617 130.92C202.31 130.48 202.157 129.94 202.157 129.3C202.157 128.393 202.464 127.667 203.077 127.12C203.704 126.56 204.664 126.28 205.957 126.28H208.997V125.86C208.997 125.407 208.924 125.047 208.777 124.78C208.644 124.513 208.39 124.32 208.017 124.2C207.657 124.08 207.124 124.02 206.417 124.02C205.297 124.02 204.25 124.187 203.277 124.52V122.9C203.704 122.727 204.224 122.587 204.837 122.48C205.45 122.373 206.11 122.32 206.817 122.32C208.204 122.32 209.257 122.6 209.977 123.16C210.71 123.72 211.077 124.633 211.077 125.9V132H209.217L209.077 131.04C208.69 131.413 208.21 131.7 207.637 131.9C207.077 132.1 206.37 132.2 205.517 132.2ZM206.097 130.64C206.75 130.64 207.317 130.533 207.797 130.32C208.29 130.093 208.69 129.793 208.997 129.42V127.76H205.997C205.357 127.76 204.89 127.887 204.597 128.14C204.317 128.38 204.177 128.753 204.177 129.26C204.177 129.753 204.344 130.107 204.677 130.32C205.01 130.533 205.484 130.64 206.097 130.64ZM215.936 132L212.196 122.52H214.456L217.116 129.88L219.776 122.52H222.016L218.296 132H215.936ZM227.865 132.2C226.211 132.2 224.931 131.793 224.025 130.98C223.118 130.167 222.665 128.92 222.665 127.24C222.665 125.72 223.051 124.52 223.825 123.64C224.598 122.76 225.771 122.32 227.345 122.32C228.785 122.32 229.865 122.7 230.585 123.46C231.318 124.207 231.685 125.173 231.685 126.36V128.12H224.745C224.851 129.04 225.185 129.673 225.745 130.02C226.305 130.367 227.158 130.54 228.305 130.54C228.785 130.54 229.278 130.493 229.785 130.4C230.291 130.307 230.731 130.187 231.105 130.04V131.64C230.678 131.827 230.185 131.967 229.625 132.06C229.078 132.153 228.491 132.2 227.865 132.2ZM224.745 126.7H229.765V126.04C229.765 125.387 229.585 124.88 229.225 124.52C228.865 124.147 228.258 123.96 227.405 123.96C226.391 123.96 225.691 124.18 225.305 124.62C224.931 125.06 224.745 125.753 224.745 126.7ZM242.956 132.2C241.25 132.2 239.996 131.773 239.196 130.92C238.41 130.067 238.016 128.847 238.016 127.26C238.016 125.673 238.416 124.453 239.216 123.6C240.016 122.747 241.263 122.32 242.956 122.32C244.663 122.32 245.916 122.747 246.716 123.6C247.516 124.453 247.916 125.673 247.916 127.26C247.916 128.847 247.516 130.067 246.716 130.92C245.93 131.773 244.676 132.2 242.956 132.2ZM242.956 130.36C243.956 130.36 244.663 130.12 245.076 129.64C245.503 129.147 245.716 128.353 245.716 127.26C245.716 126.167 245.503 125.38 245.076 124.9C244.663 124.42 243.956 124.18 242.956 124.18C241.97 124.18 241.263 124.42 240.836 124.9C240.423 125.38 240.216 126.167 240.216 127.26C240.216 128.353 240.423 129.147 240.836 129.64C241.263 130.12 241.97 130.36 242.956 130.36ZM250.037 132V122.52H252.037L252.137 123.52C252.564 123.187 253.071 122.907 253.657 122.68C254.257 122.44 254.917 122.32 255.637 122.32C256.864 122.32 257.757 122.607 258.317 123.18C258.877 123.753 259.157 124.647 259.157 125.86V132H256.997V125.96C256.997 125.227 256.844 124.713 256.537 124.42C256.244 124.127 255.684 123.98 254.857 123.98C254.364 123.98 253.877 124.08 253.397 124.28C252.931 124.48 252.537 124.74 252.217 125.06V132H250.037ZM99.2574 165.52C98.5374 165.52 97.9241 165.427 97.4174 165.24V163.62C97.6441 163.7 97.8508 163.753 98.0374 163.78C98.2374 163.807 98.4374 163.82 98.6374 163.82C99.0508 163.82 99.3841 163.753 99.6374 163.62C99.8908 163.487 100.111 163.273 100.297 162.98C100.497 162.7 100.711 162.333 100.937 161.88L96.7174 152.52H98.9774L102.017 159.56L105.097 152.52H107.337L103.477 161.46C103.144 162.26 102.784 162.96 102.397 163.56C102.024 164.173 101.584 164.653 101.077 165C100.584 165.347 99.9774 165.52 99.2574 165.52ZM112.712 162.2C111.005 162.2 109.752 161.773 108.952 160.92C108.165 160.067 107.772 158.847 107.772 157.26C107.772 155.673 108.172 154.453 108.972 153.6C109.772 152.747 111.019 152.32 112.712 152.32C114.419 152.32 115.672 152.747 116.472 153.6C117.272 154.453 117.672 155.673 117.672 157.26C117.672 158.847 117.272 160.067 116.472 160.92C115.685 161.773 114.432 162.2 112.712 162.2ZM112.712 160.36C113.712 160.36 114.419 160.12 114.832 159.64C115.259 159.147 115.472 158.353 115.472 157.26C115.472 156.167 115.259 155.38 114.832 154.9C114.419 154.42 113.712 154.18 112.712 154.18C111.725 154.18 111.019 154.42 110.592 154.9C110.179 155.38 109.972 156.167 109.972 157.26C109.972 158.353 110.179 159.147 110.592 159.64C111.019 160.12 111.725 160.36 112.712 160.36ZM123.213 162.2C122.08 162.2 121.207 161.887 120.593 161.26C119.993 160.633 119.693 159.713 119.693 158.5V152.52H121.873V158.5C121.873 159.207 122.047 159.727 122.393 160.06C122.74 160.393 123.273 160.56 123.993 160.56C124.527 160.56 125.02 160.46 125.473 160.26C125.927 160.06 126.32 159.793 126.653 159.46V152.52H128.813V162H126.833L126.733 161.02C126.307 161.353 125.8 161.633 125.213 161.86C124.627 162.087 123.96 162.2 123.213 162.2ZM131.356 162V152.52H133.356L133.476 153.62C133.929 153.327 134.469 153.06 135.096 152.82C135.722 152.58 136.342 152.413 136.956 152.32V153.98C136.582 154.047 136.176 154.147 135.736 154.28C135.309 154.4 134.902 154.54 134.516 154.7C134.129 154.847 133.802 155 133.536 155.16V162H131.356ZM148.353 162.2C147.659 162.2 147.059 162.107 146.553 161.92C146.046 161.733 145.579 161.447 145.153 161.06L145.033 162H143.153V148.52H145.333V153.14C146.159 152.593 147.153 152.32 148.313 152.32C149.659 152.32 150.719 152.707 151.493 153.48C152.279 154.24 152.673 155.473 152.673 157.18C152.673 158.9 152.286 160.167 151.513 160.98C150.739 161.793 149.686 162.2 148.353 162.2ZM147.773 160.56C148.759 160.56 149.453 160.28 149.853 159.72C150.266 159.16 150.473 158.313 150.473 157.18C150.473 156.007 150.253 155.18 149.813 154.7C149.373 154.22 148.679 153.98 147.733 153.98C146.746 153.98 145.946 154.253 145.333 154.8V159.56C145.959 160.227 146.773 160.56 147.773 160.56ZM159.333 162.2C157.627 162.2 156.373 161.773 155.573 160.92C154.787 160.067 154.393 158.847 154.393 157.26C154.393 155.673 154.793 154.453 155.593 153.6C156.393 152.747 157.64 152.32 159.333 152.32C161.04 152.32 162.293 152.747 163.093 153.6C163.893 154.453 164.293 155.673 164.293 157.26C164.293 158.847 163.893 160.067 163.093 160.92C162.307 161.773 161.053 162.2 159.333 162.2ZM159.333 160.36C160.333 160.36 161.04 160.12 161.453 159.64C161.88 159.147 162.093 158.353 162.093 157.26C162.093 156.167 161.88 155.38 161.453 154.9C161.04 154.42 160.333 154.18 159.333 154.18C158.347 154.18 157.64 154.42 157.213 154.9C156.8 155.38 156.593 156.167 156.593 157.26C156.593 158.353 156.8 159.147 157.213 159.64C157.64 160.12 158.347 160.36 159.333 160.36ZM170.334 162.2C169.481 162.2 168.728 162.053 168.074 161.76C167.421 161.467 166.914 160.98 166.554 160.3C166.194 159.62 166.014 158.707 166.014 157.56C166.014 156.427 166.208 155.473 166.594 154.7C166.981 153.913 167.514 153.32 168.194 152.92C168.888 152.52 169.668 152.32 170.534 152.32C171.108 152.32 171.614 152.387 172.054 152.52C172.508 152.653 172.941 152.86 173.354 153.14V148.52H175.534V162H173.674L173.534 161.06C173.108 161.447 172.641 161.733 172.134 161.92C171.628 162.107 171.028 162.2 170.334 162.2ZM170.914 160.56C171.888 160.56 172.701 160.227 173.354 159.56V154.82C172.728 154.26 171.941 153.98 170.994 153.98C170.074 153.98 169.381 154.287 168.914 154.9C168.448 155.513 168.214 156.407 168.214 157.58C168.214 158.713 168.428 159.493 168.854 159.92C169.294 160.347 169.981 160.56 170.914 160.56ZM179.687 165.52C178.967 165.52 178.354 165.427 177.847 165.24V163.62C178.074 163.7 178.28 163.753 178.467 163.78C178.667 163.807 178.867 163.82 179.067 163.82C179.48 163.82 179.814 163.753 180.067 163.62C180.32 163.487 180.54 163.273 180.727 162.98C180.927 162.7 181.14 162.333 181.367 161.88L177.147 152.52H179.407L182.447 159.56L185.527 152.52H187.767L183.907 161.46C183.574 162.26 183.214 162.96 182.827 163.56C182.454 164.173 182.014 164.653 181.507 165C181.014 165.347 180.407 165.52 179.687 165.52ZM191.32 158.76V158.32C191.32 157.787 191.434 157.327 191.66 156.94C191.887 156.553 192.167 156.207 192.5 155.9C192.847 155.593 193.194 155.3 193.54 155.02C193.967 154.673 194.327 154.333 194.62 154C194.914 153.653 195.06 153.233 195.06 152.74C195.06 152.033 194.854 151.533 194.44 151.24C194.027 150.933 193.3 150.78 192.26 150.78C191.7 150.78 191.14 150.853 190.58 151C190.02 151.133 189.527 151.3 189.1 151.5V149.66C189.554 149.433 190.1 149.253 190.74 149.12C191.394 148.987 192.087 148.92 192.82 148.92C194.287 148.92 195.394 149.247 196.14 149.9C196.887 150.54 197.26 151.433 197.26 152.58C197.26 153.327 197.08 153.933 196.72 154.4C196.374 154.853 195.907 155.32 195.32 155.8C194.96 156.107 194.64 156.38 194.36 156.62C194.094 156.86 193.88 157.12 193.72 157.4C193.574 157.667 193.5 158.007 193.5 158.42V158.76H191.32ZM191.24 162V160.36H193.56V162H191.24Z" fill="black"/>
</svg>
