<svg width="295" height="342" viewBox="0 0 295 342" fill="none" xmlns="http://www.w3.org/2000/svg">
<path d="M137.675 200.054C153.244 202.379 168.329 198.098 179.503 188.659C187.432 200.95 200.609 209.45 216.178 211.774C241.823 215.603 265.84 200.765 273.819 177.783C284.257 175.526 293.734 170.233 301.007 162.6C308.28 154.966 313.012 145.346 314.581 135.001C316.606 121.441 313.033 107.614 304.65 96.5609C296.266 85.5077 283.758 78.1339 269.878 76.0617C266.476 75.5539 263.279 75.4685 259.67 75.4524C251.378 65.5907 239.73 58.4946 225.992 56.4437C210.422 54.1192 195.338 58.4003 184.164 67.8387C176.235 55.5485 163.058 47.0482 147.488 44.7237C121.844 40.8952 97.8264 55.7332 89.8477 78.7147C79.4094 80.9725 69.9332 86.2648 62.6598 93.8986C55.3865 101.532 50.6552 111.152 49.0854 121.497C47.0611 135.057 50.6337 148.884 59.0172 159.937C67.4007 170.99 79.9084 178.364 93.7887 180.436L103.997 181.046C112.289 190.907 123.936 198.003 137.675 200.054Z" fill="#C8EDEE"/>
<path d="M179.204 188.306L179.606 187.966L179.891 188.409C187.746 200.583 200.803 209.011 216.247 211.317C241.675 215.113 265.478 200.399 273.382 177.632L273.467 177.386L273.721 177.331C284.07 175.093 293.464 169.846 300.672 162.28C307.88 154.715 312.568 145.183 314.124 134.932C316.129 121.498 312.59 107.796 304.281 96.8406C295.971 85.8849 283.572 78.5739 269.81 76.5193C266.442 76.0166 263.272 75.9312 259.668 75.9151L259.454 75.9141L259.316 75.7501C251.091 65.9683 239.542 58.9344 225.924 56.9013C210.48 54.5957 195.531 58.8431 184.463 68.1921L184.061 68.5317L183.776 68.0895C175.921 55.9156 162.864 47.487 147.42 45.1814C121.991 41.3851 98.1891 56.0992 90.2848 78.8665L90.1996 79.112L89.9455 79.167C79.5966 81.4054 70.2033 86.652 62.9948 94.2177C55.7865 101.783 51.0983 111.316 49.5429 121.567C47.5376 135.001 51.0769 148.703 59.3858 159.658C67.6913 170.608 80.0825 177.917 93.8369 179.976L104.025 180.584L104.223 180.596L104.351 180.748C112.576 190.53 124.124 197.564 137.743 199.597C153.186 201.902 168.136 197.655 179.204 188.306Z" stroke="#15C6D2" stroke-opacity="0.27" stroke-width="0.925393"/>
<ellipse cx="12.7393" cy="12.2803" rx="12.7393" ry="12.2803" transform="matrix(-0.999982 0.00605302 0.0182328 0.999834 241.857 215.233)" fill="#C8EDEE"/>
<path d="M217.064 227.663C217.182 234.174 222.76 239.447 229.558 239.406C236.355 239.365 241.739 234.025 241.62 227.514C241.502 221.003 235.924 215.729 229.127 215.771C222.329 215.812 216.945 221.152 217.064 227.663Z" stroke="#15C6D2" stroke-opacity="0.27" stroke-width="0.921368"/>
<ellipse cx="8.61773" cy="8.30726" rx="8.61773" ry="8.30726" transform="matrix(-0.999982 0.00605302 0.0182328 0.999834 265.535 239.649)" fill="#C8EDEE"/>
<path d="M248.912 248.056C248.991 252.373 252.691 255.88 257.212 255.852C261.733 255.825 265.304 252.275 265.226 247.958C265.147 243.64 261.447 240.134 256.926 240.162C252.405 240.189 248.833 243.739 248.912 248.056Z" stroke="#15C6D2" stroke-opacity="0.27" stroke-width="0.921368"/>
<ellipse cx="5.62026" cy="5.41778" rx="5.62026" ry="5.41778" transform="matrix(-0.999982 0.00605302 0.0182328 0.999834 294.063 242.365)" fill="#C8EDEE"/>
<path d="M283.382 247.848C283.432 250.569 285.767 252.79 288.632 252.773C291.498 252.755 293.751 250.507 293.701 247.785C293.652 245.064 291.317 242.843 288.451 242.86C285.586 242.877 283.333 245.126 283.382 247.848Z" stroke="#15C6D2" stroke-opacity="0.27" stroke-width="0.921368"/>
<path d="M85.0817 115V104.052H86.9347V108.812H92.2047V104.052H94.0577V115H92.2047V110.24H86.9347V115H85.0817ZM98.7208 115.17C98.2108 115.17 97.7348 115.079 97.2928 114.898C96.8621 114.717 96.5164 114.445 96.2558 114.082C95.9951 113.708 95.8648 113.249 95.8648 112.705C95.8648 111.934 96.1254 111.317 96.6468 110.852C97.1794 110.376 97.9954 110.138 99.0948 110.138H101.679V109.781C101.679 109.396 101.616 109.09 101.492 108.863C101.378 108.636 101.163 108.472 100.846 108.37C100.54 108.268 100.086 108.217 99.4858 108.217C98.5338 108.217 97.6441 108.359 96.8168 108.642V107.265C97.1794 107.118 97.6214 106.999 98.1428 106.908C98.6641 106.817 99.2251 106.772 99.8258 106.772C101.004 106.772 101.9 107.01 102.512 107.486C103.135 107.962 103.447 108.738 103.447 109.815V115H101.866L101.747 114.184C101.418 114.501 101.01 114.745 100.523 114.915C100.047 115.085 99.4461 115.17 98.7208 115.17ZM99.2138 113.844C99.7691 113.844 100.251 113.753 100.659 113.572C101.078 113.379 101.418 113.124 101.679 112.807V111.396H99.1288C98.5848 111.396 98.1881 111.504 97.9388 111.719C97.7008 111.923 97.5818 112.24 97.5818 112.671C97.5818 113.09 97.7234 113.391 98.0068 113.572C98.2901 113.753 98.6924 113.844 99.2138 113.844ZM107.577 115L104.398 106.942H106.319L108.58 113.198L110.841 106.942H112.745L109.583 115H107.577ZM117.716 115.17C116.311 115.17 115.223 114.824 114.452 114.133C113.682 113.442 113.296 112.382 113.296 110.954C113.296 109.662 113.625 108.642 114.282 107.894C114.94 107.146 115.937 106.772 117.274 106.772C118.498 106.772 119.416 107.095 120.028 107.741C120.652 108.376 120.963 109.197 120.963 110.206V111.702H115.064C115.155 112.484 115.438 113.022 115.914 113.317C116.39 113.612 117.116 113.759 118.09 113.759C118.498 113.759 118.918 113.719 119.348 113.64C119.779 113.561 120.153 113.459 120.47 113.334V114.694C120.108 114.853 119.688 114.972 119.212 115.051C118.748 115.13 118.249 115.17 117.716 115.17ZM115.064 110.495H119.331V109.934C119.331 109.379 119.178 108.948 118.872 108.642C118.566 108.325 118.051 108.166 117.325 108.166C116.464 108.166 115.869 108.353 115.54 108.727C115.223 109.101 115.064 109.69 115.064 110.495ZM128.504 117.992C127.892 117.992 127.371 117.913 126.94 117.754V116.377C127.133 116.445 127.309 116.49 127.467 116.513C127.637 116.536 127.807 116.547 127.977 116.547C128.329 116.547 128.612 116.49 128.827 116.377C129.043 116.264 129.23 116.082 129.388 115.833C129.558 115.595 129.74 115.283 129.932 114.898L126.345 106.942H128.266L130.85 112.926L133.468 106.942H135.372L132.091 114.541C131.808 115.221 131.502 115.816 131.173 116.326C130.856 116.847 130.482 117.255 130.051 117.55C129.632 117.845 129.116 117.992 128.504 117.992ZM139.941 115.17C138.49 115.17 137.425 114.807 136.745 114.082C136.076 113.357 135.742 112.32 135.742 110.971C135.742 109.622 136.082 108.585 136.762 107.86C137.442 107.135 138.501 106.772 139.941 106.772C141.391 106.772 142.457 107.135 143.137 107.86C143.817 108.585 144.157 109.622 144.157 110.971C144.157 112.32 143.817 113.357 143.137 114.082C142.468 114.807 141.403 115.17 139.941 115.17ZM139.941 113.606C140.791 113.606 141.391 113.402 141.743 112.994C142.105 112.575 142.287 111.9 142.287 110.971C142.287 110.042 142.105 109.373 141.743 108.965C141.391 108.557 140.791 108.353 139.941 108.353C139.102 108.353 138.501 108.557 138.139 108.965C137.787 109.373 137.612 110.042 137.612 110.971C137.612 111.9 137.787 112.575 138.139 112.994C138.501 113.402 139.102 113.606 139.941 113.606ZM148.867 115.17C147.903 115.17 147.161 114.904 146.64 114.371C146.13 113.838 145.875 113.056 145.875 112.025V106.942H147.728V112.025C147.728 112.626 147.875 113.068 148.17 113.351C148.464 113.634 148.918 113.776 149.53 113.776C149.983 113.776 150.402 113.691 150.788 113.521C151.173 113.351 151.507 113.124 151.791 112.841V106.942H153.627V115H151.944L151.859 114.167C151.496 114.45 151.065 114.688 150.567 114.881C150.068 115.074 149.501 115.17 148.867 115.17ZM162.392 115.17C161.836 115.17 161.304 115.13 160.794 115.051C160.295 114.972 159.881 114.875 159.553 114.762V113.198C159.938 113.345 160.363 113.459 160.828 113.538C161.292 113.617 161.734 113.657 162.154 113.657C162.788 113.657 163.242 113.6 163.514 113.487C163.786 113.374 163.922 113.153 163.922 112.824C163.922 112.586 163.837 112.399 163.667 112.263C163.508 112.127 163.264 112.002 162.936 111.889C162.618 111.776 162.21 111.64 161.712 111.481C161.236 111.322 160.822 111.152 160.471 110.971C160.119 110.778 159.847 110.535 159.655 110.24C159.462 109.945 159.366 109.56 159.366 109.084C159.366 108.347 159.632 107.781 160.165 107.384C160.697 106.976 161.553 106.772 162.732 106.772C163.196 106.772 163.638 106.806 164.058 106.874C164.477 106.942 164.834 107.027 165.129 107.129V108.676C164.811 108.551 164.46 108.455 164.075 108.387C163.701 108.319 163.349 108.285 163.021 108.285C162.431 108.285 161.984 108.336 161.678 108.438C161.383 108.54 161.236 108.744 161.236 109.05C161.236 109.367 161.389 109.594 161.695 109.73C162.012 109.855 162.516 110.03 163.208 110.257C163.842 110.45 164.347 110.654 164.721 110.869C165.095 111.084 165.361 111.345 165.52 111.651C165.69 111.946 165.775 112.331 165.775 112.807C165.775 113.6 165.486 114.195 164.908 114.592C164.33 114.977 163.491 115.17 162.392 115.17ZM171.422 115.17C170.017 115.17 168.929 114.824 168.158 114.133C167.388 113.442 167.002 112.382 167.002 110.954C167.002 109.662 167.331 108.642 167.988 107.894C168.646 107.146 169.643 106.772 170.98 106.772C172.204 106.772 173.122 107.095 173.734 107.741C174.358 108.376 174.669 109.197 174.669 110.206V111.702H168.77C168.861 112.484 169.144 113.022 169.62 113.317C170.096 113.612 170.822 113.759 171.796 113.759C172.204 113.759 172.624 113.719 173.054 113.64C173.485 113.561 173.859 113.459 174.176 113.334V114.694C173.814 114.853 173.394 114.972 172.918 115.051C172.454 115.13 171.955 115.17 171.422 115.17ZM168.77 110.495H173.037V109.934C173.037 109.379 172.884 108.948 172.578 108.642C172.272 108.325 171.757 108.166 171.031 108.166C170.17 108.166 169.575 108.353 169.246 108.727C168.929 109.101 168.77 109.69 168.77 110.495ZM180.553 115.17C179.148 115.17 178.06 114.824 177.289 114.133C176.519 113.442 176.133 112.382 176.133 110.954C176.133 109.662 176.462 108.642 177.119 107.894C177.777 107.146 178.774 106.772 180.111 106.772C181.335 106.772 182.253 107.095 182.865 107.741C183.489 108.376 183.8 109.197 183.8 110.206V111.702H177.901C177.992 112.484 178.275 113.022 178.751 113.317C179.227 113.612 179.953 113.759 180.927 113.759C181.335 113.759 181.755 113.719 182.185 113.64C182.616 113.561 182.99 113.459 183.307 113.334V114.694C182.945 114.853 182.525 114.972 182.049 115.051C181.585 115.13 181.086 115.17 180.553 115.17ZM177.901 110.495H182.168V109.934C182.168 109.379 182.015 108.948 181.709 108.642C181.403 108.325 180.888 108.166 180.162 108.166C179.301 108.166 178.706 108.353 178.377 108.727C178.06 109.101 177.901 109.69 177.901 110.495ZM185.604 115V106.942H187.304L187.389 107.792C187.752 107.509 188.183 107.271 188.681 107.078C189.191 106.874 189.752 106.772 190.364 106.772C191.407 106.772 192.166 107.016 192.642 107.503C193.118 107.99 193.356 108.75 193.356 109.781V115H191.52V109.866C191.52 109.243 191.39 108.806 191.129 108.557C190.88 108.308 190.404 108.183 189.701 108.183C189.282 108.183 188.868 108.268 188.46 108.438C188.064 108.608 187.729 108.829 187.457 109.101V115H185.604ZM202.036 115.17C201.481 115.17 200.948 115.13 200.438 115.051C199.94 114.972 199.526 114.875 199.197 114.762V113.198C199.583 113.345 200.008 113.459 200.472 113.538C200.937 113.617 201.379 113.657 201.798 113.657C202.433 113.657 202.886 113.6 203.158 113.487C203.43 113.374 203.566 113.153 203.566 112.824C203.566 112.586 203.481 112.399 203.311 112.263C203.153 112.127 202.909 112.002 202.58 111.889C202.263 111.776 201.855 111.64 201.356 111.481C200.88 111.322 200.467 111.152 200.115 110.971C199.764 110.778 199.492 110.535 199.299 110.24C199.107 109.945 199.01 109.56 199.01 109.084C199.01 108.347 199.277 107.781 199.809 107.384C200.342 106.976 201.198 106.772 202.376 106.772C202.841 106.772 203.283 106.806 203.702 106.874C204.122 106.942 204.479 107.027 204.773 107.129V108.676C204.456 108.551 204.105 108.455 203.719 108.387C203.345 108.319 202.994 108.285 202.665 108.285C202.076 108.285 201.628 108.336 201.322 108.438C201.028 108.54 200.88 108.744 200.88 109.05C200.88 109.367 201.033 109.594 201.339 109.73C201.657 109.855 202.161 110.03 202.852 110.257C203.487 110.45 203.991 110.654 204.365 110.869C204.739 111.084 205.006 111.345 205.164 111.651C205.334 111.946 205.419 112.331 205.419 112.807C205.419 113.6 205.13 114.195 204.552 114.592C203.974 114.977 203.136 115.17 202.036 115.17ZM210.846 115.17C209.395 115.17 208.33 114.807 207.65 114.082C206.981 113.357 206.647 112.32 206.647 110.971C206.647 109.622 206.987 108.585 207.667 107.86C208.347 107.135 209.407 106.772 210.846 106.772C212.297 106.772 213.362 107.135 214.042 107.86C214.722 108.585 215.062 109.622 215.062 110.971C215.062 112.32 214.722 113.357 214.042 114.082C213.373 114.807 212.308 115.17 210.846 115.17ZM210.846 113.606C211.696 113.606 212.297 113.402 212.648 112.994C213.011 112.575 213.192 111.9 213.192 110.971C213.192 110.042 213.011 109.373 212.648 108.965C212.297 108.557 211.696 108.353 210.846 108.353C210.007 108.353 209.407 108.557 209.044 108.965C208.693 109.373 208.517 110.042 208.517 110.971C208.517 111.9 208.693 112.575 209.044 112.994C209.407 113.402 210.007 113.606 210.846 113.606ZM216.865 115V106.942H218.565L218.65 107.792C219.047 107.475 219.483 107.225 219.959 107.044C220.435 106.863 220.945 106.772 221.489 106.772C222.067 106.772 222.515 106.868 222.832 107.061C223.161 107.242 223.41 107.497 223.58 107.826C223.954 107.52 224.385 107.271 224.872 107.078C225.359 106.874 225.943 106.772 226.623 106.772C227.552 106.772 228.238 107.01 228.68 107.486C229.122 107.962 229.343 108.693 229.343 109.679V115H227.524V109.866C227.524 109.243 227.394 108.806 227.133 108.557C226.872 108.308 226.447 108.183 225.858 108.183C225.473 108.183 225.104 108.251 224.753 108.387C224.413 108.523 224.118 108.727 223.869 108.999C223.903 109.124 223.926 109.254 223.937 109.39C223.948 109.526 223.954 109.673 223.954 109.832V115H222.237V109.883C222.237 109.294 222.135 108.863 221.931 108.591C221.727 108.319 221.342 108.183 220.775 108.183C220.378 108.183 219.999 108.279 219.636 108.472C219.285 108.653 218.967 108.874 218.684 109.135V115H216.865ZM235.338 115.17C233.933 115.17 232.845 114.824 232.074 114.133C231.304 113.442 230.918 112.382 230.918 110.954C230.918 109.662 231.247 108.642 231.904 107.894C232.562 107.146 233.559 106.772 234.896 106.772C236.12 106.772 237.038 107.095 237.65 107.741C238.274 108.376 238.585 109.197 238.585 110.206V111.702H232.686C232.777 112.484 233.06 113.022 233.536 113.317C234.012 113.612 234.738 113.759 235.712 113.759C236.12 113.759 236.54 113.719 236.97 113.64C237.401 113.561 237.775 113.459 238.092 113.334V114.694C237.73 114.853 237.31 114.972 236.834 115.051C236.37 115.13 235.871 115.17 235.338 115.17ZM232.686 110.495H236.953V109.934C236.953 109.379 236.8 108.948 236.494 108.642C236.188 108.325 235.673 108.166 234.947 108.166C234.086 108.166 233.491 108.353 233.162 108.727C232.845 109.101 232.686 109.69 232.686 110.495ZM244.248 115.17C242.798 115.17 241.732 114.807 241.052 114.082C240.384 113.357 240.049 112.32 240.049 110.971C240.049 109.622 240.389 108.585 241.069 107.86C241.749 107.135 242.809 106.772 244.248 106.772C245.699 106.772 246.764 107.135 247.444 107.86C248.124 108.585 248.464 109.622 248.464 110.971C248.464 112.32 248.124 113.357 247.444 114.082C246.776 114.807 245.71 115.17 244.248 115.17ZM244.248 113.606C245.098 113.606 245.699 113.402 246.05 112.994C246.413 112.575 246.594 111.9 246.594 110.971C246.594 110.042 246.413 109.373 246.05 108.965C245.699 108.557 245.098 108.353 244.248 108.353C243.41 108.353 242.809 108.557 242.446 108.965C242.095 109.373 241.919 110.042 241.919 110.971C241.919 111.9 242.095 112.575 242.446 112.994C242.809 113.402 243.41 113.606 244.248 113.606ZM250.267 115V106.942H251.967L252.052 107.792C252.415 107.509 252.846 107.271 253.344 107.078C253.854 106.874 254.415 106.772 255.027 106.772C256.07 106.772 256.829 107.016 257.305 107.503C257.781 107.99 258.019 108.75 258.019 109.781V115H256.183V109.866C256.183 109.243 256.053 108.806 255.792 108.557C255.543 108.308 255.067 108.183 254.364 108.183C253.945 108.183 253.531 108.268 253.123 108.438C252.727 108.608 252.392 108.829 252.12 109.101V115H250.267ZM264.009 115.17C262.604 115.17 261.516 114.824 260.745 114.133C259.975 113.442 259.589 112.382 259.589 110.954C259.589 109.662 259.918 108.642 260.575 107.894C261.233 107.146 262.23 106.772 263.567 106.772C264.791 106.772 265.709 107.095 266.321 107.741C266.945 108.376 267.256 109.197 267.256 110.206V111.702H261.357C261.448 112.484 261.731 113.022 262.207 113.317C262.683 113.612 263.409 113.759 264.383 113.759C264.791 113.759 265.211 113.719 265.641 113.64C266.072 113.561 266.446 113.459 266.763 113.334V114.694C266.401 114.853 265.981 114.972 265.505 115.051C265.041 115.13 264.542 115.17 264.009 115.17ZM261.357 110.495H265.624V109.934C265.624 109.379 265.471 108.948 265.165 108.642C264.859 108.325 264.344 108.166 263.618 108.166C262.757 108.166 262.162 108.353 261.833 108.727C261.516 109.101 261.357 109.69 261.357 110.495ZM98.3977 140.17C96.981 140.17 95.91 139.813 95.1847 139.099C94.4594 138.374 94.0967 137.331 94.0967 135.971C94.0967 134.554 94.4934 133.5 95.2867 132.809C96.0914 132.118 97.1624 131.772 98.4997 131.772C99.055 131.772 99.5197 131.812 99.8937 131.891C100.279 131.97 100.647 132.095 100.999 132.265V133.642C100.409 133.347 99.6954 133.2 98.8567 133.2C97.9274 133.2 97.2134 133.41 96.7147 133.829C96.216 134.237 95.9667 134.951 95.9667 135.971C95.9667 136.934 96.1877 137.643 96.6297 138.096C97.0717 138.538 97.8027 138.759 98.8227 138.759C99.6274 138.759 100.358 138.606 101.016 138.3V139.711C100.642 139.858 100.239 139.972 99.8087 140.051C99.3894 140.13 98.919 140.17 98.3977 140.17ZM104.494 140.17C103.837 140.17 103.338 140.011 102.998 139.694C102.658 139.365 102.488 138.827 102.488 138.079V128.542H104.341V137.909C104.341 138.226 104.398 138.442 104.511 138.555C104.625 138.668 104.795 138.725 105.021 138.725C105.293 138.725 105.554 138.691 105.803 138.623V139.966C105.588 140.045 105.378 140.096 105.174 140.119C104.982 140.153 104.755 140.17 104.494 140.17ZM111.112 140.17C109.661 140.17 108.596 139.807 107.916 139.082C107.247 138.357 106.913 137.32 106.913 135.971C106.913 134.622 107.253 133.585 107.933 132.86C108.613 132.135 109.673 131.772 111.112 131.772C112.563 131.772 113.628 132.135 114.308 132.86C114.988 133.585 115.328 134.622 115.328 135.971C115.328 137.32 114.988 138.357 114.308 139.082C113.639 139.807 112.574 140.17 111.112 140.17ZM111.112 138.606C111.962 138.606 112.563 138.402 112.914 137.994C113.277 137.575 113.458 136.9 113.458 135.971C113.458 135.042 113.277 134.373 112.914 133.965C112.563 133.557 111.962 133.353 111.112 133.353C110.273 133.353 109.673 133.557 109.31 133.965C108.959 134.373 108.783 135.042 108.783 135.971C108.783 136.9 108.959 137.575 109.31 137.994C109.673 138.402 110.273 138.606 111.112 138.606ZM119.734 140.17C119.179 140.17 118.646 140.13 118.136 140.051C117.637 139.972 117.224 139.875 116.895 139.762V138.198C117.28 138.345 117.705 138.459 118.17 138.538C118.635 138.617 119.077 138.657 119.496 138.657C120.131 138.657 120.584 138.6 120.856 138.487C121.128 138.374 121.264 138.153 121.264 137.824C121.264 137.586 121.179 137.399 121.009 137.263C120.85 137.127 120.607 137.002 120.278 136.889C119.961 136.776 119.553 136.64 119.054 136.481C118.578 136.322 118.164 136.152 117.813 135.971C117.462 135.778 117.19 135.535 116.997 135.24C116.804 134.945 116.708 134.56 116.708 134.084C116.708 133.347 116.974 132.781 117.507 132.384C118.04 131.976 118.895 131.772 120.074 131.772C120.539 131.772 120.981 131.806 121.4 131.874C121.819 131.942 122.176 132.027 122.471 132.129V133.676C122.154 133.551 121.802 133.455 121.417 133.387C121.043 133.319 120.692 133.285 120.363 133.285C119.774 133.285 119.326 133.336 119.02 133.438C118.725 133.54 118.578 133.744 118.578 134.05C118.578 134.367 118.731 134.594 119.037 134.73C119.354 134.855 119.859 135.03 120.55 135.257C121.185 135.45 121.689 135.654 122.063 135.869C122.437 136.084 122.703 136.345 122.862 136.651C123.032 136.946 123.117 137.331 123.117 137.807C123.117 138.6 122.828 139.195 122.25 139.592C121.672 139.977 120.833 140.17 119.734 140.17ZM128.765 140.17C127.359 140.17 126.271 139.824 125.501 139.133C124.73 138.442 124.345 137.382 124.345 135.954C124.345 134.662 124.673 133.642 125.331 132.894C125.988 132.146 126.985 131.772 128.323 131.772C129.547 131.772 130.465 132.095 131.077 132.741C131.7 133.376 132.012 134.197 132.012 135.206V136.702H126.113C126.203 137.484 126.487 138.022 126.963 138.317C127.439 138.612 128.164 138.759 129.139 138.759C129.547 138.759 129.966 138.719 130.397 138.64C130.827 138.561 131.201 138.459 131.519 138.334V139.694C131.156 139.853 130.737 139.972 130.261 140.051C129.796 140.13 129.297 140.17 128.765 140.17ZM126.113 135.495H130.38V134.934C130.38 134.379 130.227 133.948 129.921 133.642C129.615 133.325 129.099 133.166 128.374 133.166C127.512 133.166 126.917 133.353 126.589 133.727C126.271 134.101 126.113 134.69 126.113 135.495ZM140.811 140.17C139.949 140.17 139.303 139.943 138.873 139.49C138.453 139.025 138.244 138.396 138.244 137.603V133.387H137.054V131.942H138.244V130.089L140.08 129.528V131.942H142.222L142.103 133.387H140.08V137.501C140.08 137.966 140.187 138.294 140.403 138.487C140.618 138.668 140.969 138.759 141.457 138.759C141.763 138.759 142.086 138.702 142.426 138.589V139.898C141.984 140.079 141.445 140.17 140.811 140.17ZM147.702 140.17C146.251 140.17 145.186 139.807 144.506 139.082C143.837 138.357 143.503 137.32 143.503 135.971C143.503 134.622 143.843 133.585 144.523 132.86C145.203 132.135 146.263 131.772 147.702 131.772C149.153 131.772 150.218 132.135 150.898 132.86C151.578 133.585 151.918 134.622 151.918 135.971C151.918 137.32 151.578 138.357 150.898 139.082C150.229 139.807 149.164 140.17 147.702 140.17ZM147.702 138.606C148.552 138.606 149.153 138.402 149.504 137.994C149.867 137.575 150.048 136.9 150.048 135.971C150.048 135.042 149.867 134.373 149.504 133.965C149.153 133.557 148.552 133.353 147.702 133.353C146.863 133.353 146.263 133.557 145.9 133.965C145.549 134.373 145.373 135.042 145.373 135.971C145.373 136.9 145.549 137.575 145.9 137.994C146.263 138.402 146.863 138.606 147.702 138.606ZM159.458 142.992C158.846 142.992 158.325 142.913 157.894 142.754V141.377C158.087 141.445 158.262 141.49 158.421 141.513C158.591 141.536 158.761 141.547 158.931 141.547C159.282 141.547 159.566 141.49 159.781 141.377C159.996 141.264 160.183 141.082 160.342 140.833C160.512 140.595 160.693 140.283 160.886 139.898L157.299 131.942H159.22L161.804 137.926L164.422 131.942H166.326L163.045 139.541C162.762 140.221 162.456 140.816 162.127 141.326C161.81 141.847 161.436 142.255 161.005 142.55C160.586 142.845 160.07 142.992 159.458 142.992ZM170.894 140.17C169.444 140.17 168.378 139.807 167.698 139.082C167.03 138.357 166.695 137.32 166.695 135.971C166.695 134.622 167.035 133.585 167.715 132.86C168.395 132.135 169.455 131.772 170.894 131.772C172.345 131.772 173.41 132.135 174.09 132.86C174.77 133.585 175.11 134.622 175.11 135.971C175.11 137.32 174.77 138.357 174.09 139.082C173.422 139.807 172.356 140.17 170.894 140.17ZM170.894 138.606C171.744 138.606 172.345 138.402 172.696 137.994C173.059 137.575 173.24 136.9 173.24 135.971C173.24 135.042 173.059 134.373 172.696 133.965C172.345 133.557 171.744 133.353 170.894 133.353C170.056 133.353 169.455 133.557 169.092 133.965C168.741 134.373 168.565 135.042 168.565 135.971C168.565 136.9 168.741 137.575 169.092 137.994C169.455 138.402 170.056 138.606 170.894 138.606ZM179.82 140.17C178.857 140.17 178.115 139.904 177.593 139.371C177.083 138.838 176.828 138.056 176.828 137.025V131.942H178.681V137.025C178.681 137.626 178.829 138.068 179.123 138.351C179.418 138.634 179.871 138.776 180.483 138.776C180.937 138.776 181.356 138.691 181.741 138.521C182.127 138.351 182.461 138.124 182.744 137.841V131.942H184.58V140H182.897L182.812 139.167C182.45 139.45 182.019 139.688 181.52 139.881C181.022 140.074 180.455 140.17 179.82 140.17ZM194.518 140.17C193.068 140.17 192.002 139.807 191.322 139.082C190.654 138.357 190.319 137.32 190.319 135.971C190.319 134.622 190.659 133.585 191.339 132.86C192.019 132.135 193.079 131.772 194.518 131.772C195.969 131.772 197.034 132.135 197.714 132.86C198.394 133.585 198.734 134.622 198.734 135.971C198.734 137.32 198.394 138.357 197.714 139.082C197.046 139.807 195.98 140.17 194.518 140.17ZM194.518 138.606C195.368 138.606 195.969 138.402 196.32 137.994C196.683 137.575 196.864 136.9 196.864 135.971C196.864 135.042 196.683 134.373 196.32 133.965C195.969 133.557 195.368 133.353 194.518 133.353C193.68 133.353 193.079 133.557 192.716 133.965C192.365 134.373 192.189 135.042 192.189 135.971C192.189 136.9 192.365 137.575 192.716 137.994C193.079 138.402 193.68 138.606 194.518 138.606ZM202.447 140L199.268 131.942H201.189L203.45 138.198L205.711 131.942H207.615L204.453 140H202.447ZM212.586 140.17C211.181 140.17 210.093 139.824 209.322 139.133C208.551 138.442 208.166 137.382 208.166 135.954C208.166 134.662 208.495 133.642 209.152 132.894C209.809 132.146 210.807 131.772 212.144 131.772C213.368 131.772 214.286 132.095 214.898 132.741C215.521 133.376 215.833 134.197 215.833 135.206V136.702H209.934C210.025 137.484 210.308 138.022 210.784 138.317C211.26 138.612 211.985 138.759 212.96 138.759C213.368 138.759 213.787 138.719 214.218 138.64C214.649 138.561 215.023 138.459 215.34 138.334V139.694C214.977 139.853 214.558 139.972 214.082 140.051C213.617 140.13 213.119 140.17 212.586 140.17ZM209.934 135.495H214.201V134.934C214.201 134.379 214.048 133.948 213.742 133.642C213.436 133.325 212.92 133.166 212.195 133.166C211.334 133.166 210.739 133.353 210.41 133.727C210.093 134.101 209.934 134.69 209.934 135.495ZM217.637 140V131.942H219.337L219.439 132.877C219.824 132.628 220.283 132.401 220.816 132.197C221.349 131.993 221.876 131.851 222.397 131.772V133.183C222.08 133.24 221.734 133.325 221.36 133.438C220.997 133.54 220.652 133.659 220.323 133.795C219.994 133.92 219.717 134.05 219.49 134.186V140H217.637ZM226.746 140.17C226.021 140.17 225.381 140.045 224.825 139.796C224.27 139.547 223.839 139.133 223.533 138.555C223.227 137.977 223.074 137.201 223.074 136.226C223.074 135.263 223.239 134.452 223.567 133.795C223.896 133.126 224.349 132.622 224.927 132.282C225.517 131.942 226.18 131.772 226.916 131.772C227.404 131.772 227.834 131.829 228.208 131.942C228.594 132.055 228.962 132.231 229.313 132.469V128.542H231.166V140H229.585L229.466 139.201C229.104 139.53 228.707 139.773 228.276 139.932C227.846 140.091 227.336 140.17 226.746 140.17ZM227.239 138.776C228.067 138.776 228.758 138.493 229.313 137.926V133.897C228.781 133.421 228.112 133.183 227.307 133.183C226.525 133.183 225.936 133.444 225.539 133.965C225.143 134.486 224.944 135.246 224.944 136.243C224.944 137.206 225.126 137.869 225.488 138.232C225.862 138.595 226.446 138.776 227.239 138.776ZM237.002 140.17C235.551 140.17 234.486 139.807 233.806 139.082C233.137 138.357 232.803 137.32 232.803 135.971C232.803 134.622 233.143 133.585 233.823 132.86C234.503 132.135 235.562 131.772 237.002 131.772C238.452 131.772 239.518 132.135 240.198 132.86C240.878 133.585 241.218 134.622 241.218 135.971C241.218 137.32 240.878 138.357 240.198 139.082C239.529 139.807 238.464 140.17 237.002 140.17ZM237.002 138.606C237.852 138.606 238.452 138.402 238.804 137.994C239.166 137.575 239.348 136.9 239.348 135.971C239.348 135.042 239.166 134.373 238.804 133.965C238.452 133.557 237.852 133.353 237.002 133.353C236.163 133.353 235.562 133.557 235.2 133.965C234.848 134.373 234.673 135.042 234.673 135.971C234.673 136.9 234.848 137.575 235.2 137.994C235.562 138.402 236.163 138.606 237.002 138.606ZM245.624 140.17C245.068 140.17 244.536 140.13 244.026 140.051C243.527 139.972 243.113 139.875 242.785 139.762V138.198C243.17 138.345 243.595 138.459 244.06 138.538C244.524 138.617 244.966 138.657 245.386 138.657C246.02 138.657 246.474 138.6 246.746 138.487C247.018 138.374 247.154 138.153 247.154 137.824C247.154 137.586 247.069 137.399 246.899 137.263C246.74 137.127 246.496 137.002 246.168 136.889C245.85 136.776 245.442 136.64 244.944 136.481C244.468 136.322 244.054 136.152 243.703 135.971C243.351 135.778 243.079 135.535 242.887 135.24C242.694 134.945 242.598 134.56 242.598 134.084C242.598 133.347 242.864 132.781 243.397 132.384C243.929 131.976 244.785 131.772 245.964 131.772C246.428 131.772 246.87 131.806 247.29 131.874C247.709 131.942 248.066 132.027 248.361 132.129V133.676C248.043 133.551 247.692 133.455 247.307 133.387C246.933 133.319 246.581 133.285 246.253 133.285C245.663 133.285 245.216 133.336 244.91 133.438C244.615 133.54 244.468 133.744 244.468 134.05C244.468 134.367 244.621 134.594 244.927 134.73C245.244 134.855 245.748 135.03 246.44 135.257C247.074 135.45 247.579 135.654 247.953 135.869C248.327 136.084 248.593 136.345 248.752 136.651C248.922 136.946 249.007 137.331 249.007 137.807C249.007 138.6 248.718 139.195 248.14 139.592C247.562 139.977 246.723 140.17 245.624 140.17ZM254.654 140.17C253.249 140.17 252.161 139.824 251.39 139.133C250.62 138.442 250.234 137.382 250.234 135.954C250.234 134.662 250.563 133.642 251.22 132.894C251.878 132.146 252.875 131.772 254.212 131.772C255.436 131.772 256.354 132.095 256.966 132.741C257.59 133.376 257.901 134.197 257.901 135.206V136.702H252.002C252.093 137.484 252.376 138.022 252.852 138.317C253.328 138.612 254.054 138.759 255.028 138.759C255.436 138.759 255.856 138.719 256.286 138.64C256.717 138.561 257.091 138.459 257.408 138.334V139.694C257.046 139.853 256.626 139.972 256.15 140.051C255.686 140.13 255.187 140.17 254.654 140.17ZM252.002 135.495H256.269V134.934C256.269 134.379 256.116 133.948 255.81 133.642C255.504 133.325 254.989 133.166 254.263 133.166C253.402 133.166 252.807 133.353 252.478 133.727C252.161 134.101 252.002 134.69 252.002 135.495ZM152.613 165.17C152.023 165.17 151.513 165.091 151.083 164.932C150.652 164.773 150.255 164.53 149.893 164.201L149.791 165H148.193V153.542H150.046V157.469C150.748 157.004 151.593 156.772 152.579 156.772C153.723 156.772 154.624 157.101 155.282 157.758C155.95 158.404 156.285 159.452 156.285 160.903C156.285 162.365 155.956 163.442 155.299 164.133C154.641 164.824 153.746 165.17 152.613 165.17ZM152.12 163.776C152.958 163.776 153.548 163.538 153.888 163.062C154.239 162.586 154.415 161.866 154.415 160.903C154.415 159.906 154.228 159.203 153.854 158.795C153.48 158.387 152.89 158.183 152.086 158.183C151.247 158.183 150.567 158.415 150.046 158.88V162.926C150.578 163.493 151.27 163.776 152.12 163.776ZM162.167 165.17C160.762 165.17 159.674 164.824 158.903 164.133C158.132 163.442 157.747 162.382 157.747 160.954C157.747 159.662 158.076 158.642 158.733 157.894C159.39 157.146 160.388 156.772 161.725 156.772C162.949 156.772 163.867 157.095 164.479 157.741C165.102 158.376 165.414 159.197 165.414 160.206V161.702H159.515C159.606 162.484 159.889 163.022 160.365 163.317C160.841 163.612 161.566 163.759 162.541 163.759C162.949 163.759 163.368 163.719 163.799 163.64C164.23 163.561 164.604 163.459 164.921 163.334V164.694C164.558 164.853 164.139 164.972 163.663 165.051C163.198 165.13 162.7 165.17 162.167 165.17ZM159.515 160.495H163.782V159.934C163.782 159.379 163.629 158.948 163.323 158.642C163.017 158.325 162.501 158.166 161.776 158.166C160.915 158.166 160.32 158.353 159.991 158.727C159.674 159.101 159.515 159.69 159.515 160.495ZM167.711 165V158.387H166.538V156.942H167.711V155.956C167.711 155.151 167.932 154.505 168.374 154.018C168.827 153.519 169.496 153.27 170.38 153.27C170.709 153.27 171.009 153.298 171.281 153.355C171.553 153.4 171.802 153.468 172.029 153.559V154.885C171.678 154.76 171.321 154.698 170.958 154.698C170.425 154.698 170.057 154.794 169.853 154.987C169.649 155.18 169.547 155.508 169.547 155.973V156.942H171.655L171.57 158.387H169.547V165H167.711ZM176.605 165.17C175.155 165.17 174.089 164.807 173.409 164.082C172.741 163.357 172.406 162.32 172.406 160.971C172.406 159.622 172.746 158.585 173.426 157.86C174.106 157.135 175.166 156.772 176.605 156.772C178.056 156.772 179.121 157.135 179.801 157.86C180.481 158.585 180.821 159.622 180.821 160.971C180.821 162.32 180.481 163.357 179.801 164.082C179.133 164.807 178.067 165.17 176.605 165.17ZM176.605 163.606C177.455 163.606 178.056 163.402 178.407 162.994C178.77 162.575 178.951 161.9 178.951 160.971C178.951 160.042 178.77 159.373 178.407 158.965C178.056 158.557 177.455 158.353 176.605 158.353C175.767 158.353 175.166 158.557 174.803 158.965C174.452 159.373 174.276 160.042 174.276 160.971C174.276 161.9 174.452 162.575 174.803 162.994C175.166 163.402 175.767 163.606 176.605 163.606ZM182.624 165V156.942H184.324L184.426 157.877C184.812 157.628 185.271 157.401 185.803 157.197C186.336 156.993 186.863 156.851 187.384 156.772V158.183C187.067 158.24 186.721 158.325 186.347 158.438C185.985 158.54 185.639 158.659 185.31 158.795C184.982 158.92 184.704 159.05 184.477 159.186V165H182.624ZM192.482 165.17C191.076 165.17 189.988 164.824 189.218 164.133C188.447 163.442 188.062 162.382 188.062 160.954C188.062 159.662 188.39 158.642 189.048 157.894C189.705 157.146 190.702 156.772 192.04 156.772C193.264 156.772 194.182 157.095 194.794 157.741C195.417 158.376 195.729 159.197 195.729 160.206V161.702H189.83C189.92 162.484 190.204 163.022 190.68 163.317C191.156 163.612 191.881 163.759 192.856 163.759C193.264 163.759 193.683 163.719 194.114 163.64C194.544 163.561 194.918 163.459 195.236 163.334V164.694C194.873 164.853 194.454 164.972 193.978 165.051C193.513 165.13 193.014 165.17 192.482 165.17ZM189.83 160.495H194.097V159.934C194.097 159.379 193.944 158.948 193.638 158.642C193.332 158.325 192.816 158.166 192.091 158.166C191.229 158.166 190.634 158.353 190.306 158.727C189.988 159.101 189.83 159.69 189.83 160.495ZM199.079 162.246V161.872C199.079 161.419 199.176 161.028 199.368 160.699C199.561 160.37 199.799 160.076 200.082 159.815C200.377 159.554 200.672 159.305 200.966 159.067C201.329 158.772 201.635 158.483 201.884 158.2C202.134 157.905 202.258 157.548 202.258 157.129C202.258 156.528 202.083 156.103 201.731 155.854C201.38 155.593 200.762 155.463 199.878 155.463C199.402 155.463 198.926 155.525 198.45 155.65C197.974 155.763 197.555 155.905 197.192 156.075V154.511C197.578 154.318 198.042 154.165 198.586 154.052C199.142 153.939 199.731 153.882 200.354 153.882C201.601 153.882 202.542 154.16 203.176 154.715C203.811 155.259 204.128 156.018 204.128 156.993C204.128 157.628 203.975 158.143 203.669 158.54C203.375 158.925 202.978 159.322 202.479 159.73C202.173 159.991 201.901 160.223 201.663 160.427C201.437 160.631 201.255 160.852 201.119 161.09C200.995 161.317 200.932 161.606 200.932 161.957V162.246H199.079ZM199.011 165V163.606H200.983V165H199.011Z" fill="black"/>
</svg>
