<svg width="36" height="36" viewBox="0 0 36 36" fill="none" xmlns="http://www.w3.org/2000/svg">
<path d="M19.6989 25.5863C19.4027 25.2901 19.2605 24.9322 19.2724 24.5125C19.2852 24.0929 19.4397 23.7349 19.7359 23.4387L23.9201 19.2546H7.40562C6.98597 19.2546 6.63396 19.1124 6.34958 18.828C6.06619 18.5446 5.9245 18.1931 5.9245 17.7734C5.9245 17.3538 6.06619 17.0018 6.34958 16.7174C6.63396 16.434 6.98597 16.2923 7.40562 16.2923H23.9201L19.6989 12.0711C19.4027 11.7749 19.2546 11.4229 19.2546 11.0151C19.2546 10.6083 19.4027 10.2568 19.6989 9.96053C19.9951 9.66431 20.3471 9.5162 20.755 9.5162C21.1618 9.5162 21.5133 9.66431 21.8095 9.96053L28.5856 16.7367C28.7337 16.8848 28.8389 17.0452 28.9011 17.218C28.9623 17.3908 28.9929 17.576 28.9929 17.7734C28.9929 17.9709 28.9623 18.1561 28.9011 18.3289C28.8389 18.5017 28.7337 18.6621 28.5856 18.8102L21.7725 25.6234C21.5009 25.8949 21.1618 26.0307 20.755 26.0307C20.3471 26.0307 19.9951 25.8826 19.6989 25.5863Z" fill="white"/>
</svg>
