<svg width="19" height="14" viewBox="0 0 19 14" fill="none" xmlns="http://www.w3.org/2000/svg">
<path d="M7.6549 13.6233C7.89888 13.3722 8.01599 13.0688 8.00623 12.713C7.99566 12.3572 7.86838 12.0538 7.6244 11.8027L4.17817 8.2556H17.7801C18.1257 8.2556 18.4157 8.13507 18.6499 7.89399C18.8833 7.65375 19 7.35575 19 7C19 6.64424 18.8833 6.34583 18.6499 6.10475C18.4157 5.86451 18.1257 5.74439 17.7801 5.74439H4.17817L7.6549 2.16592C7.89888 1.9148 8.02087 1.61638 8.02087 1.27067C8.02087 0.925799 7.89888 0.627802 7.6549 0.376681C7.41092 0.12556 7.12099 0 6.78511 0C6.45004 0 6.16051 0.12556 5.91653 0.376681L0.335476 6.12108C0.213486 6.24664 0.126871 6.38266 0.0756359 6.52915C0.0252132 6.67563 0 6.83259 0 7C0 7.16741 0.0252132 7.32436 0.0756359 7.47085C0.126871 7.61734 0.213486 7.75336 0.335476 7.87892L5.94703 13.6547C6.17068 13.8849 6.45004 14 6.78511 14C7.12099 14 7.41092 13.8744 7.6549 13.6233Z" fill="black"/>
</svg>
