<svg width="246" height="246" viewBox="0 0 246 246" fill="none" xmlns="http://www.w3.org/2000/svg">
<g clip-path="url(#clip0_14_26)">
<path d="M123 246C190.931 246 246 190.931 246 123C246 55.069 190.931 0 123 0C55.069 0 0 55.069 0 123C0 190.931 55.069 246 123 246Z" fill="#C8EDEE"/>
<path d="M181.281 39.9795H60.2449C57.5443 39.9795 55.3551 42.1687 55.3551 44.8693V203.883C55.3551 206.583 57.5443 208.773 60.2449 208.773H181.281C183.982 208.773 186.171 206.583 186.171 203.883V44.8693C186.171 42.1687 183.982 39.9795 181.281 39.9795Z" fill="#2B677E"/>
<path d="M171.09 181.475H70.4405C69.2678 181.475 68.3172 182.425 68.3172 183.598V191.419C68.3172 192.591 69.2678 193.542 70.4405 193.542H171.09C172.263 193.542 173.214 192.591 173.214 191.419V183.598C173.214 182.425 172.263 181.475 171.09 181.475Z" fill="#105469"/>
<path d="M169.93 48.0034H71.6013C69.6994 48.0034 68.1576 49.5452 68.1576 51.4471V186.94C68.1576 188.842 69.6994 190.384 71.6013 190.384H169.93C171.832 190.384 173.373 188.842 173.373 186.94V51.4471C173.373 49.5452 171.832 48.0034 169.93 48.0034Z" fill="white"/>
<path d="M120.765 20.812C114.318 20.812 109.09 26.0403 109.09 32.4875C109.09 38.9348 114.318 44.1631 120.765 44.1631C127.213 44.1631 132.441 38.9348 132.441 32.4875C132.441 26.0403 127.213 20.812 120.765 20.812ZM120.765 38.8961C117.559 38.8961 114.957 36.294 114.957 33.0873C114.957 29.8806 117.559 27.2785 120.765 27.2785C123.972 27.2785 126.574 29.8806 126.574 33.0873C126.574 36.294 123.972 38.8961 120.765 38.8961Z" fill="#FFAB80"/>
<path d="M93.2258 91.8377H86.7592C85.3649 91.8377 84.2345 92.968 84.2345 94.3624V100.829C84.2345 102.223 85.3649 103.354 86.7592 103.354H93.2258C94.6202 103.354 95.7505 102.223 95.7505 100.829V94.3624C95.7505 92.968 94.6202 91.8377 93.2258 91.8377Z" fill="#4D4D4D"/>
<path d="M93.2258 71.5529H86.7592C85.3649 71.5529 84.2345 72.6833 84.2345 74.0776V80.5442C84.2345 81.9385 85.3649 83.0689 86.7592 83.0689H93.2258C94.6202 83.0689 95.7505 81.9385 95.7505 80.5442V74.0776C95.7505 72.6833 94.6202 71.5529 93.2258 71.5529Z" fill="#4D4D4D"/>
<path d="M93.2258 111.489H86.7592C85.3649 111.489 84.2345 112.619 84.2345 114.014V120.48C84.2345 121.874 85.3649 123.005 86.7592 123.005H93.2258C94.6202 123.005 95.7505 121.874 95.7505 120.48V114.014C95.7505 112.619 94.6202 111.489 93.2258 111.489Z" fill="#4D4D4D"/>
<path d="M93.2258 131.135H86.7592C85.3649 131.135 84.2345 132.266 84.2345 133.66V140.126C84.2345 141.521 85.3649 142.651 86.7592 142.651H93.2258C94.6202 142.651 95.7505 141.521 95.7505 140.126V133.66C95.7505 132.266 94.6202 131.135 93.2258 131.135Z" fill="#4D4D4D"/>
<path d="M152.924 73.9519H107.721C105.867 73.9519 104.365 75.4536 104.365 77.3061C104.365 79.1585 105.867 80.6603 107.721 80.6603H152.924C154.778 80.6603 156.281 79.1585 156.281 77.3061C156.281 75.4536 154.778 73.9519 152.924 73.9519Z" fill="#4D4D4D"/>
<path d="M152.924 94.2415H107.721C105.867 94.2415 104.365 95.7432 104.365 97.5957C104.365 99.4481 105.867 100.95 107.721 100.95H152.924C154.778 100.95 156.281 99.4481 156.281 97.5957C156.281 95.7432 154.778 94.2415 152.924 94.2415Z" fill="#4D4D4D"/>
<path d="M152.924 113.249H107.721C105.867 113.249 104.365 114.751 104.365 116.604C104.365 118.456 105.867 119.958 107.721 119.958H152.924C154.778 119.958 156.281 118.456 156.281 116.604C156.281 114.751 154.778 113.249 152.924 113.249Z" fill="#4D4D4D"/>
<path d="M152.924 133.539H107.721C105.867 133.539 104.365 135.041 104.365 136.893C104.365 138.746 105.867 140.247 107.721 140.247H152.924C154.778 140.247 156.281 138.746 156.281 136.893C156.281 135.041 154.778 133.539 152.924 133.539Z" fill="#4D4D4D"/>
<path d="M152.905 157.021H87.6057C85.7438 157.021 84.2345 158.53 84.2345 160.392V174.181C84.2345 176.043 85.7438 177.552 87.6057 177.552H152.905C154.767 177.552 156.276 176.043 156.276 174.181V160.392C156.276 158.53 154.767 157.021 152.905 157.021Z" fill="#4D4D4D"/>
</g>
<defs>
<clipPath id="clip0_14_26">
<rect width="246" height="246" fill="white"/>
</clipPath>
</defs>
</svg>
