<svg width="435" height="138" viewBox="0 0 435 138" fill="none" xmlns="http://www.w3.org/2000/svg">
<path d="M178.675 54.1021C182.629 54.1021 185.857 54.4739 188.358 55.2175C190.893 55.961 192.853 57.3637 194.239 59.4254C195.658 61.4871 196.368 64.4445 196.368 68.2976C196.368 72.421 195.625 75.5643 194.137 77.7274C192.65 79.8567 190.656 81.2763 188.155 81.986C185.654 82.662 182.494 83 178.675 83H168.535V54.1021H178.675ZM185.468 76.1051C185.874 75.6995 186.161 74.6517 186.33 72.9618C186.499 71.2719 186.583 69.7171 186.583 68.2976C186.583 66.5062 186.448 65.0867 186.178 64.0389C185.941 62.9574 185.502 62.0955 184.86 61.4533C183.846 60.338 182.105 59.7803 179.638 59.7803C179.198 59.7803 178.539 59.8141 177.661 59.8817V76.7134C178.235 76.781 179.131 76.8148 180.348 76.8148C181.598 76.8148 182.697 76.7641 183.643 76.6627C184.623 76.5275 185.231 76.3417 185.468 76.1051ZM214.412 59.1719C214.851 59.1719 215.308 59.2226 215.781 59.324C216.288 59.4254 216.659 59.5437 216.896 59.6789C216.896 60.4225 216.812 61.6561 216.643 63.3799C216.474 65.0698 216.322 66.2696 216.186 66.9794C215.848 66.9456 215.223 66.9287 214.31 66.9287C212.181 66.9287 210.288 67.047 208.632 67.2836V83H199.963V59.6789H207.213L208.227 63.4306H208.277C209.258 62.1462 210.305 61.1153 211.421 60.338C212.536 59.5606 213.533 59.1719 214.412 59.1719ZM242.494 59.6789V83H235.447L234.484 79.0963C232.05 82.0367 229.143 83.507 225.763 83.507C224.547 83.507 223.398 83.338 222.316 83C221.268 82.662 220.474 82.1719 219.933 81.5298C219.629 81.158 219.392 80.2285 219.223 78.7414C219.088 77.2542 219.021 74.9897 219.021 71.9478V59.6789H227.69V71.8464C227.69 72.5224 227.707 73.3167 227.741 74.2292C227.775 75.1418 227.876 75.7164 228.045 75.953C228.281 76.291 228.957 76.46 230.073 76.46L230.884 76.4093C231.83 76.3755 232.811 76.1558 233.824 75.7502V59.6789H242.494ZM258.818 59.2733C260.407 59.2733 262.063 59.3916 263.787 59.6282C265.51 59.831 267.521 60.1183 269.82 60.4901V80.6679C269.82 85.5011 268.214 89.2528 265.003 91.9229C264.598 92.2608 263.685 92.5481 262.266 92.7847C260.846 93.0213 259.241 93.1396 257.449 93.1396C253.563 93.1396 250.487 92.6326 248.222 91.6187C248.189 90.8751 248.239 89.8949 248.374 88.6782C248.543 87.4614 248.712 86.4982 248.881 85.7884C251.315 86.1602 253.698 86.3461 256.03 86.3461C257.213 86.3461 258.21 86.2785 259.021 86.1433C259.866 86.0419 260.39 85.8729 260.593 85.6363C260.863 85.3659 261.066 84.3519 261.201 82.5944C261.235 82.1212 261.252 81.4284 261.252 80.5158V79.2483C260.407 80.4989 259.325 81.3946 258.007 81.9353C256.689 82.4761 255.506 82.7465 254.458 82.7465C251.619 82.7465 249.473 81.817 248.02 79.9581C246.566 78.0992 245.84 75.3784 245.84 71.7957C245.84 69.4298 246.161 67.216 246.803 65.1543C247.479 63.0588 248.391 61.6054 249.54 60.7943C250.284 60.2873 251.484 59.9155 253.14 59.6789C254.83 59.4085 256.723 59.2733 258.818 59.2733ZM257.754 76.4093C259.004 76.4093 260.136 76.2065 261.15 75.8009V65.205C260.779 65.1374 260.221 65.0698 259.477 65.0022C259.139 64.9684 258.632 64.9515 257.956 64.9515C256.909 64.9515 256.25 65.0529 255.979 65.2557C255.607 65.5261 255.303 66.2865 255.067 67.5371C254.864 68.7538 254.762 70.0382 254.762 71.3901C254.762 73.2491 254.965 74.5503 255.371 75.2939C255.81 76.0375 256.604 76.4093 257.754 76.4093ZM311.65 83H303.133L302.474 67.0808C302.372 63.9375 302.254 61.5547 302.119 59.9324H301.967C301.561 61.2167 301.088 63.2109 300.547 65.9148L300.294 67.1822L296.795 83H288.278L285.338 68.7538L284.831 66.2189C284.121 63.0757 283.631 60.9802 283.36 59.9324H283.208C283.073 61.6223 282.955 64.3769 282.853 68.1962C282.82 68.4328 282.803 68.8045 282.803 69.3115L282.346 83H273.778L274.995 54.1021H289.495L291.979 66.5738L292.587 69.9199C292.858 68.8721 293.111 67.7061 293.348 66.4217L295.68 54.1021H310.484L311.65 83ZM320.179 56.7891C319.03 56.7891 318.033 56.4004 317.188 55.6231C316.377 54.8457 315.972 53.9162 315.972 52.8347C315.972 51.7531 316.377 50.8236 317.188 50.0463C318.033 49.2689 319.03 48.8802 320.179 48.8802C321.329 48.8802 322.309 49.2689 323.12 50.0463C323.931 50.8236 324.337 51.7531 324.337 52.8347C324.337 53.9162 323.931 54.8457 323.12 55.6231C322.309 56.4004 321.329 56.7891 320.179 56.7891ZM315.819 59.6789H324.489V83H315.819V59.6789ZM351.348 61.1491C351.652 61.5209 351.872 62.4504 352.007 63.9375C352.176 65.4247 352.261 67.6892 352.261 70.7311V83H343.591V70.8325V68.7538C343.591 67.6723 343.507 66.9963 343.338 66.7259C343.067 66.3879 342.442 66.2189 341.462 66.2189C340.989 66.2189 340.634 66.2358 340.397 66.2696C339.451 66.3034 338.471 66.5231 337.457 66.9287V83H328.787V59.6789H335.834L336.798 63.5826C339.231 60.6422 342.138 59.1719 345.518 59.1719C346.735 59.1719 347.867 59.3409 348.915 59.6789C349.996 60.0169 350.807 60.507 351.348 61.1491ZM379.485 52.2263V83H372.337L371.627 79.0963C370.951 80.4144 369.954 81.4622 368.636 82.2395C367.318 83.0169 365.83 83.4056 364.174 83.4056C361.538 83.4056 359.426 82.4592 357.837 80.5665C356.282 78.6738 355.505 75.8347 355.505 72.0492C355.505 69.1763 355.843 66.8104 356.519 64.9515C357.195 63.0926 357.989 61.7575 358.902 60.9464C359.476 60.4394 360.642 60.0169 362.4 59.6789C364.191 59.3409 365.78 59.1719 367.165 59.1719C368.382 59.1719 369.633 59.2902 370.917 59.5268C370.816 57.9045 370.765 57.0088 370.765 56.8398V52.5812L379.485 52.2263ZM367.977 76.612C368.889 76.612 369.836 76.46 370.816 76.1558V65.1543C369.836 65.0191 368.754 64.9515 367.571 64.9515C366.557 64.9515 365.915 65.036 365.645 65.205C365.273 65.4754 364.969 66.2527 364.732 67.5371C364.529 68.7876 364.428 70.1058 364.428 71.4915C364.428 73.5533 364.732 74.9221 365.34 75.5981C365.983 76.2741 366.861 76.612 367.977 76.612ZM397.789 76.9162C398.634 76.9162 400.206 76.8317 402.504 76.6627C402.808 76.6627 403.366 76.6289 404.177 76.5613L404.937 81.7832C402.335 83 398.955 83.6084 394.798 83.6084C390.911 83.6084 387.92 82.6282 385.824 80.6679C383.763 78.7076 382.732 75.7502 382.732 71.7957C382.732 69.7678 382.985 67.8075 383.492 65.9148C384.033 64.022 384.641 62.7039 385.317 61.9603C386.027 61.2167 387.345 60.5746 389.272 60.0338C391.198 59.493 393.108 59.2226 395.001 59.2226C398.043 59.2226 400.324 59.7634 401.845 60.845C403.366 61.9265 404.363 63.4306 404.836 65.3571C405.309 67.2498 405.546 69.8016 405.546 73.0125C403.248 73.1477 401 73.2153 398.803 73.2153H391.604C391.604 74.2968 391.824 75.108 392.263 75.6488C392.736 76.1896 393.395 76.5444 394.24 76.7134C395.085 76.8486 396.268 76.9162 397.789 76.9162ZM392.111 65.2557C391.908 65.3571 391.756 65.7965 391.655 66.5738C391.553 67.3512 391.486 68.23 391.452 69.2101H394.088C395.677 69.2101 396.826 69.1932 397.536 69.1594C397.536 67.5371 397.299 66.3879 396.826 65.712C396.386 65.036 395.609 64.698 394.494 64.698C393.581 64.698 392.787 64.8839 392.111 65.2557ZM423.046 59.1719C423.486 59.1719 423.942 59.2226 424.415 59.324C424.922 59.4254 425.294 59.5437 425.53 59.6789C425.53 60.4225 425.446 61.6561 425.277 63.3799C425.108 65.0698 424.956 66.2696 424.821 66.9794C424.483 66.9456 423.857 66.9287 422.945 66.9287C420.815 66.9287 418.923 67.047 417.267 67.2836V83H408.597V59.6789H415.847L416.861 63.4306H416.912C417.892 62.1462 418.94 61.1153 420.055 60.338C421.17 59.5606 422.167 59.1719 423.046 59.1719Z" fill="#262626"/>
<path d="M68.5216 137.04C106.365 137.04 137.043 106.363 137.043 68.52C137.043 30.6774 106.365 0 68.5216 0C30.6782 0 0 30.6774 0 68.52C0 106.363 30.6782 137.04 68.5216 137.04Z" fill="#CCEAEC"/>
<path d="M97.1806 35.3475C87.9227 28.4835 74.8502 30.429 67.9969 39.6976C67.7783 39.9927 67.5707 40.2988 67.363 40.6048C67.2428 40.7469 67.1116 40.8999 66.9914 41.053L52.9897 59.9509L87.0265 84.117L100.525 65.8968C100.646 65.7438 100.744 65.5798 100.842 65.4159C101.072 65.1317 101.301 64.8475 101.52 64.5415C108.384 55.2838 106.439 42.2115 97.1697 35.3584L97.1806 35.3475Z" fill="#3F9DB7" stroke="#267E99" stroke-width="3.16863" stroke-miterlimit="10"/>
<path d="M40.8244 76.3786C40.7151 76.5316 40.6167 76.6847 40.5183 76.8486C40.2888 77.1328 40.0593 77.417 39.8407 77.7121C32.9765 86.9698 34.9221 100.042 44.1909 106.895C53.4488 113.759 66.5213 111.814 73.3746 102.545C73.5932 102.25 73.8009 101.955 73.9976 101.649C74.1178 101.507 74.2381 101.365 74.3583 101.212L86.9936 84.1498L87.0264 84.1061L52.9897 59.9399L40.8244 76.3677V76.3786Z" fill="white" stroke="#377893" stroke-width="3.16863" stroke-miterlimit="10"/>
<path d="M9.96826 70.1158H28.0359L40.5947 37.2931L51.995 70.1158L59.7445 92.4785L66.7836 70.1158H127.064" stroke="#F36437" stroke-width="3.53302" stroke-miterlimit="10"/>
</svg>
