<svg width="36" height="36" viewBox="0 0 36 36" fill="none" xmlns="http://www.w3.org/2000/svg">
<path d="M12.0804 6.09815V11H10.7496V6.09815H12.0804ZM16.9523 6.09815V11H15.8417L14.0706 8.42462H14.0418V11H12.7111V6.09815H13.8408L15.5832 8.66396H15.6215V6.09815H16.9523ZM17.5818 11V6.09815H21.0284V7.17043H18.9126V8.01294H20.8178V9.08522H18.9126V11H17.5818ZM26.2665 8.54908C26.2665 9.09479 26.1604 9.55514 25.9482 9.93011C25.736 10.3035 25.4496 10.5867 25.089 10.7798C24.7283 10.9713 24.3262 11.067 23.8826 11.067C23.4359 11.067 23.0322 10.9705 22.6715 10.7774C22.3125 10.5827 22.0269 10.2987 21.8147 9.92533C21.604 9.55035 21.4987 9.0916 21.4987 8.54908C21.4987 8.00336 21.604 7.54382 21.8147 7.17043C22.0269 6.79545 22.3125 6.51223 22.6715 6.32075C23.0322 6.12767 23.4359 6.03114 23.8826 6.03114C24.3262 6.03114 24.7283 6.12767 25.089 6.32075C25.4496 6.51223 25.736 6.79545 25.9482 7.17043C26.1604 7.54382 26.2665 8.00336 26.2665 8.54908ZM24.8975 8.54908C24.8975 8.25548 24.8584 8.00815 24.7802 7.8071C24.7036 7.60445 24.5895 7.45127 24.4379 7.34755C24.2879 7.24224 24.1028 7.18958 23.8826 7.18958C23.6624 7.18958 23.4765 7.24224 23.325 7.34755C23.175 7.45127 23.0609 7.60445 22.9827 7.8071C22.9061 8.00815 22.8678 8.25548 22.8678 8.54908C22.8678 8.84268 22.9061 9.0908 22.9827 9.29345C23.0609 9.4945 23.175 9.64768 23.325 9.753C23.4765 9.85671 23.6624 9.90857 23.8826 9.90857C24.1028 9.90857 24.2879 9.85671 24.4379 9.753C24.5895 9.64768 24.7036 9.4945 24.7802 9.29345C24.8584 9.0908 24.8975 8.84268 24.8975 8.54908Z" fill="#3F9DB7"/>
<path d="M23.0233 36H12.9767C3.88465 36 0 32.1153 0 23.0233V12.9767C0 3.88465 3.88465 0 12.9767 0H23.0233C32.1153 0 36 3.88465 36 12.9767V23.0233C36 32.1153 32.1153 36 23.0233 36ZM12.9767 2.51163C5.25767 2.51163 2.51163 5.25767 2.51163 12.9767V23.0233C2.51163 30.7423 5.25767 33.4884 12.9767 33.4884H23.0233C30.7423 33.4884 33.4884 30.7423 33.4884 23.0233V12.9767C33.4884 5.25767 30.7423 2.51163 23.0233 2.51163H12.9767Z" fill="#3F9DB7"/>
<path d="M18.007 31C17.6702 31 17.3333 30.915 17.0526 30.7593C15.4245 29.8672 12.5474 28.9043 10.7369 28.6636L10.4702 28.6211C9.09475 28.4512 8 27.2051 8 25.7749V14.8715C8 14.0644 8.33687 13.2856 8.91231 12.7475C9.50178 12.2094 10.2597 11.9403 11.0737 12.0111C13.1228 12.1811 16.0982 13.1723 17.8526 14.2768L17.993 14.3617L18.0492 14.3193C19.8177 13.2006 22.793 12.1952 24.8561 12.0111H24.9965C25.7263 11.9403 26.5123 12.2235 27.0877 12.7475C27.6772 13.2856 28 14.036 28 14.8573V25.7466C28 27.1626 26.9053 28.4087 25.5158 28.5928L25.221 28.6352C23.4246 28.876 20.5333 29.8389 18.9333 30.731C18.6667 30.9292 18.3438 31 18.007 31ZM10.8351 14.1493C10.6386 14.1493 10.4702 14.2201 10.3438 14.3334C10.1894 14.475 10.1193 14.6733 10.1193 14.8857V25.789C10.1193 26.1289 10.4281 26.4829 10.7509 26.5254L11.0176 26.5679C13.0667 26.8511 16.2105 27.8848 18.0351 28.8901C19.7333 27.8989 22.8912 26.8369 24.9544 26.5679L25.2632 26.5254C25.586 26.4829 25.8947 26.1289 25.8947 25.789V14.8998C25.8947 14.6732 25.8105 14.4892 25.6702 14.3476C25.5158 14.206 25.3193 14.1493 25.0947 14.1635C25.0667 14.1635 24.9825 14.1635 24.9544 14.1635C23.3263 14.3051 20.6456 15.2113 19.186 16.1459L19.0456 16.2309C18.4281 16.6132 17.5579 16.6132 16.9684 16.245L16.7579 16.1176C15.2842 15.183 12.6035 14.2909 10.9053 14.1493C10.8772 14.1493 10.8632 14.1493 10.8351 14.1493Z" fill="#3F9DB7"/>
<path d="M18 30C17.4533 30 17 29.5389 17 28.9828V16.0172C17 15.4611 17.4533 15 18 15C18.5467 15 19 15.4611 19 16.0172V28.9828C19 29.5524 18.5467 30 18 30Z" fill="#3F9DB7"/>
</svg>
