<svg width="138" height="138" viewBox="0 0 138 138" fill="none" xmlns="http://www.w3.org/2000/svg">
<path d="M68.5216 137.04C106.365 137.04 137.043 106.363 137.043 68.52C137.043 30.6774 106.365 0 68.5216 0C30.6782 0 0 30.6774 0 68.52C0 106.363 30.6782 137.04 68.5216 137.04Z" fill="#CCEAEC"/>
<path d="M97.1806 35.3475C87.9227 28.4835 74.8502 30.429 67.9969 39.6976C67.7783 39.9927 67.5707 40.2988 67.363 40.6048C67.2428 40.7469 67.1116 40.8999 66.9914 41.053L52.9897 59.9509L87.0265 84.1171L100.525 65.8968C100.646 65.7438 100.744 65.5798 100.842 65.4159C101.072 65.1317 101.301 64.8475 101.52 64.5415C108.384 55.2838 106.439 42.2115 97.1697 35.3584L97.1806 35.3475Z" fill="#3F9DB7" stroke="#267E99" stroke-width="3.16863" stroke-miterlimit="10"/>
<path d="M40.8244 76.3786C40.7151 76.5316 40.6167 76.6847 40.5183 76.8486C40.2888 77.1328 40.0593 77.417 39.8407 77.7121C32.9765 86.9698 34.9221 100.042 44.1909 106.895C53.4488 113.759 66.5213 111.814 73.3746 102.545C73.5932 102.25 73.8009 101.955 73.9976 101.649C74.1178 101.507 74.2381 101.365 74.3583 101.212L86.9936 84.1498L87.0264 84.1061L52.9897 59.9399L40.8244 76.3677V76.3786Z" fill="white" stroke="#377893" stroke-width="3.16863" stroke-miterlimit="10"/>
<path d="M9.96826 70.1158H28.0359L40.5947 37.2931L51.995 70.1158L59.7445 92.4785L66.7836 70.1158H127.064" stroke="#F36437" stroke-width="3.53302" stroke-miterlimit="10"/>
</svg>
