<svg width="20" height="20" viewBox="0 0 20 20" fill="none" xmlns="http://www.w3.org/2000/svg">
<path d="M10 14C7.5 14 6.29 15.92 5 14C5.03 12 8 10.9 10 10.9C12 10.9 14.97 11.5 15 13.5C14.3389 14.4844 14.0463 13.442 13 14C11.9537 14.558 11.1858 13.9994 10 14ZM10 3C10.7956 3 11.5587 3.31607 12.1213 3.87868C12.6839 4.44129 13 5.20435 13 6C13 6.79565 12.6839 7.55871 12.1213 8.12132C11.5587 8.68393 10.7956 9 10 9C9.20435 9 8.44129 8.68393 7.87868 8.12132C7.31607 7.55871 7 6.79565 7 6C7 5.20435 7.31607 4.44129 7.87868 3.87868C8.44129 3.31607 9.20435 3 10 3ZM10 0C8.68678 0 7.38642 0.258658 6.17317 0.761205C4.95991 1.26375 3.85752 2.00035 2.92893 2.92893C1.05357 4.8043 0 7.34784 0 10C0 12.6522 1.05357 15.1957 2.92893 17.0711C3.85752 17.9997 4.95991 18.7362 6.17317 19.2388C7.38642 19.7413 8.68678 20 10 20C12.6522 20 15.1957 18.9464 17.0711 17.0711C18.9464 15.1957 20 12.6522 20 10C20 4.47 15.5 0 10 0Z" fill="#C8EDEE"/>
<path d="M10 3C10.7956 3 11.5587 3.31607 12.1213 3.87868C12.6839 4.44129 13 5.20435 13 6C13 6.79565 12.6839 7.55871 12.1213 8.12132C11.5587 8.68393 10.7956 9 10 9C9.20435 9 8.44129 8.68393 7.87868 8.12132C7.31607 7.55871 7 6.79565 7 6C7 5.20435 7.31607 4.44129 7.87868 3.87868C8.44129 3.31607 9.20435 3 10 3ZM10 10.5C13.315 10.5 15.5 11.8425 15.5 13.5V15.5H10H4.5V13.5C4.5 11.8425 6.685 10.5 10 10.5Z" fill="#3F9DB7"/>
</svg>
