<svg width="36" height="36" viewBox="0 0 36 36" fill="none" xmlns="http://www.w3.org/2000/svg">
<path d="M27.4087 19.0151H18.618C17.9315 19.0151 17.3622 18.4458 17.3622 17.7593C17.3622 17.0728 17.9315 16.5034 18.618 16.5034H27.4087C28.0952 16.5034 28.6645 17.0728 28.6645 17.7593C28.6645 18.4458 28.112 19.0151 27.4087 19.0151Z" fill="#3F9DB7"/>
<path d="M9.82977 20.2871C9.51163 20.2871 9.19349 20.1699 8.94233 19.9187L7.68651 18.663C7.20093 18.1774 7.20093 17.3737 7.68651 16.8881C8.17209 16.4025 8.97581 16.4025 9.4614 16.8881L9.82977 17.2565L12.7098 14.3765C13.1954 13.8909 13.9991 13.8909 14.4847 14.3765C14.9701 14.862 14.9701 15.6658 14.4847 16.1513L10.7172 19.9187C10.4828 20.1532 10.1647 20.2871 9.82977 20.2871Z" fill="#3F9DB7"/>
<path d="M27.4087 27.736H18.618C17.9315 27.736 17.3622 27.1667 17.3622 26.4801C17.3622 25.7936 17.9315 25.2243 18.618 25.2243H27.4087C28.0952 25.2243 28.6645 25.7936 28.6645 26.4801C28.6645 27.1667 28.112 27.736 27.4087 27.736Z" fill="#3F9DB7"/>
<path d="M9.82977 29.008C9.51163 29.008 9.19349 28.8908 8.94233 28.6396L7.68651 27.3838C7.20093 26.8982 7.20093 26.0945 7.68651 25.6089C8.17209 25.1234 8.97581 25.1234 9.4614 25.6089L9.82977 25.9773L12.7098 23.0973C13.1954 22.6117 13.9991 22.6117 14.4847 23.0973C14.9701 23.5829 14.9701 24.3866 14.4847 24.8722L10.7172 28.6396C10.4828 28.8741 10.1647 29.008 9.82977 29.008Z" fill="#3F9DB7"/>
<path d="M23.0233 36H12.9767C3.88465 36 0 32.1153 0 23.0233V12.9767C0 3.88465 3.88465 0 12.9767 0H23.0233C32.1153 0 36 3.88465 36 12.9767V23.0233C36 32.1153 32.1153 36 23.0233 36ZM12.9767 2.51163C5.25767 2.51163 2.51163 5.25767 2.51163 12.9767V23.0233C2.51163 30.7423 5.25767 33.4884 12.9767 33.4884H23.0233C30.7423 33.4884 33.4884 30.7423 33.4884 23.0233V12.9767C33.4884 5.25767 30.7423 2.51163 23.0233 2.51163H12.9767Z" fill="#3F9DB7"/>
<path d="M11.2116 9.18096H12.2456L12.6189 9.65008L13.2508 10.3681L14.0742 11.3638H12.8966L12.3126 10.6841L11.92 10.1192L11.2116 9.18096ZM14.0646 8.54908C14.0646 9.09479 13.9585 9.55514 13.7463 9.93011C13.534 10.3035 13.2476 10.5867 12.887 10.7798C12.5264 10.9713 12.1243 11.067 11.6807 11.067C11.2339 11.067 10.8302 10.9705 10.4696 10.7774C10.1106 10.5827 9.82495 10.2987 9.61273 9.92533C9.4021 9.55035 9.29679 9.0916 9.29679 8.54908C9.29679 8.00336 9.4021 7.54382 9.61273 7.17043C9.82495 6.79545 10.1106 6.51223 10.4696 6.32075C10.8302 6.12767 11.2339 6.03114 11.6807 6.03114C12.1243 6.03114 12.5264 6.12767 12.887 6.32075C13.2476 6.51223 13.534 6.79545 13.7463 7.17043C13.9585 7.54382 14.0646 8.00336 14.0646 8.54908ZM12.6955 8.54908C12.6955 8.25548 12.6564 8.00815 12.5783 7.8071C12.5017 7.60445 12.3876 7.45127 12.236 7.34755C12.086 7.24224 11.9009 7.18958 11.6807 7.18958C11.4605 7.18958 11.2746 7.24224 11.123 7.34755C10.973 7.45127 10.8589 7.60445 10.7807 7.8071C10.7042 8.00815 10.6659 8.25548 10.6659 8.54908C10.6659 8.84268 10.7042 9.0908 10.7807 9.29345C10.8589 9.4945 10.973 9.64768 11.123 9.753C11.2746 9.85671 11.4605 9.90857 11.6807 9.90857C11.9009 9.90857 12.086 9.85671 12.236 9.753C12.3876 9.64768 12.5017 9.4945 12.5783 9.29345C12.6564 9.0908 12.6955 8.84268 12.6955 8.54908ZM17.5878 6.09815H18.9186V9.2384C18.9186 9.61178 18.8292 9.9349 18.6505 10.2078C18.4734 10.479 18.2261 10.6888 17.9085 10.8372C17.591 10.984 17.2224 11.0574 16.8027 11.0574C16.3799 11.0574 16.0097 10.984 15.6922 10.8372C15.3746 10.6888 15.1273 10.479 14.9502 10.2078C14.7747 9.9349 14.6869 9.61178 14.6869 9.2384V6.09815H16.0177V9.12351C16.0177 9.2751 16.0512 9.41073 16.1182 9.5304C16.1852 9.64848 16.2778 9.74103 16.3959 9.80805C16.5155 9.87506 16.6512 9.90857 16.8027 9.90857C16.9559 9.90857 17.0916 9.87506 17.2096 9.80805C17.3277 9.74103 17.4203 9.64848 17.4873 9.5304C17.5543 9.41073 17.5878 9.2751 17.5878 9.12351V6.09815ZM20.8818 6.09815V11H19.5511V6.09815H20.8818ZM21.5317 11V10.2628L23.8485 7.17043H21.5412V6.09815H25.5431V6.83535L23.2262 9.92772H25.5336V11H21.5317Z" fill="#3F9DB7"/>
</svg>
