<svg width="343" height="154" viewBox="0 0 343 154" fill="none" xmlns="http://www.w3.org/2000/svg">
<g clip-path="url(#clip0_292_661)">
<mask id="mask0_292_661" style="mask-type:luminance" maskUnits="userSpaceOnUse" x="306" y="60" width="37" height="34">
<path fill-rule="evenodd" clip-rule="evenodd" d="M324.5 62.75L308 91.25H341L324.5 62.75Z" fill="white" stroke="white" stroke-width="4" stroke-linejoin="round"/>
<path d="M324.5 85.25V86M324.5 73.25L324.506 80.75" stroke="black" stroke-width="4" stroke-linecap="round"/>
</mask>
<g mask="url(#mask0_292_661)">
<path d="M306.5 59H342.5V95H306.5V59Z" fill="#FF0000"/>
</g>
</g>
<mask id="mask1_292_661" style="mask-type:luminance" maskUnits="userSpaceOnUse" x="0" y="61" width="37" height="33">
<path fill-rule="evenodd" clip-rule="evenodd" d="M18.5 63L2 91.5H35L18.5 63Z" fill="white" stroke="white" stroke-width="4" stroke-linejoin="round"/>
<path d="M18.5 85.5V86.25M18.5 73.5L18.506 81" stroke="black" stroke-width="4" stroke-linecap="round"/>
</mask>
<g mask="url(#mask1_292_661)">
<path d="M0.5 59.25H36.5V95.25H0.5V59.25Z" fill="#FF0000"/>
</g>
<path d="M62.6253 94V62.8075H70.4234V75.1586H82.6291V62.8075H90.4272V94H82.6291V81.6489H70.4234V94H62.6253ZM95.3571 94V62.8075H103.155V94H95.3571ZM123.629 94.4844C118.236 94.4844 114.135 93.1282 111.326 90.4158C108.517 87.6711 107.112 83.8124 107.112 78.8397C107.112 73.6409 108.549 69.5885 111.423 66.6824C114.297 63.7763 118.527 62.3232 124.113 62.3232C126.018 62.3232 127.729 62.4362 129.247 62.6622C130.797 62.8883 132.266 63.2273 133.655 63.6794V70.3635C132.266 69.8468 130.813 69.4916 129.296 69.2979C127.81 69.1042 126.276 69.0073 124.694 69.0073C121.336 69.0073 118.882 69.8145 117.332 71.4291C115.814 73.0113 115.056 75.4815 115.056 78.8397C115.056 81.9073 115.782 84.1837 117.235 85.6691C118.688 87.1222 120.836 87.8487 123.677 87.8487C125.55 87.8487 127.294 87.5904 128.908 87.0737V81.1646H122.176V76.2726H135.447V91.7235C134.349 92.4339 132.815 93.0797 130.846 93.661C128.908 94.2099 126.502 94.4844 123.629 94.4844ZM139.441 94V62.8075H147.239V75.1586H159.445V62.8075H167.243V94H159.445V81.6489H147.239V94H139.441ZM182.579 94V62.8075H198.175C201.856 62.8075 204.568 63.7763 206.312 65.7137C208.056 67.6511 208.928 70.2505 208.928 73.5118C208.928 75.6107 208.395 77.4512 207.329 79.0334C206.264 80.6157 204.811 81.7943 202.97 82.5692C203.422 82.9244 203.777 83.328 204.036 83.7801C204.326 84.1999 204.633 84.7973 204.956 85.5722L208.637 94H200.5L197.013 86.0566C196.722 85.3785 196.351 84.8941 195.899 84.6035C195.446 84.2806 194.801 84.1192 193.961 84.1192H190.377V94H182.579ZM190.377 78.1132H196.141C197.658 78.1132 198.837 77.7418 199.676 76.9991C200.548 76.2242 200.984 75.0617 200.984 73.5118C200.984 70.3796 199.483 68.8135 196.48 68.8135H190.377V78.1132ZM212.898 94V62.8075H220.696V94H212.898ZM235.551 94.4844C233.485 94.4844 231.547 94.3229 229.739 94C227.963 93.7094 226.429 93.2735 225.138 92.6922V86.0566C226.558 86.6701 228.125 87.1706 229.836 87.5581C231.58 87.9456 233.226 88.1393 234.776 88.1393C236.714 88.1393 238.151 87.9617 239.087 87.6065C240.056 87.2513 240.54 86.4764 240.54 85.2816C240.54 84.4744 240.298 83.8285 239.814 83.3442C239.362 82.8598 238.603 82.4401 237.537 82.0849C236.504 81.6974 235.083 81.2453 233.275 80.7287C231.144 80.0829 229.448 79.3725 228.189 78.5975C226.93 77.7903 226.026 76.8215 225.477 75.6914C224.928 74.5612 224.653 73.1727 224.653 71.5259C224.653 68.5552 225.719 66.2788 227.85 64.6965C229.981 63.1143 233.13 62.3232 237.295 62.3232C239.103 62.3232 240.863 62.4685 242.574 62.7591C244.286 63.0174 245.674 63.3242 246.74 63.6794V70.3635C245.351 69.8145 243.947 69.4109 242.526 69.1526C241.138 68.8943 239.781 68.7651 238.457 68.7651C236.714 68.7651 235.293 68.9266 234.195 69.2495C233.13 69.5724 232.597 70.315 232.597 71.4775C232.597 72.1556 232.79 72.7045 233.178 73.1243C233.565 73.5118 234.227 73.867 235.164 74.1899C236.133 74.5128 237.44 74.9003 239.087 75.3523C241.638 76.0304 243.592 76.8538 244.948 77.8225C246.304 78.759 247.24 79.8568 247.757 81.1162C248.274 82.3432 248.532 83.7317 248.532 85.2816C248.532 88.0263 247.466 90.2543 245.335 91.9657C243.204 93.6448 239.943 94.4844 235.551 94.4844ZM252.489 94V62.8075H260.287V74.9164L271.039 62.8075H279.952L268.811 75.5461L280.63 94H272.299L263.968 80.5349L260.287 84.5551V94H252.489Z" fill="#FF0000"/>
<defs>
<clipPath id="clip0_292_661">
<rect width="36" height="36" fill="white" transform="translate(306.5 59)"/>
</clipPath>
</defs>
</svg>
