<svg width="332" height="154" viewBox="0 0 332 154" fill="none" xmlns="http://www.w3.org/2000/svg">
<path d="M61.9026 94V62.8075H69.7007V87.994H84.4251V94H61.9026ZM101.551 94.4844C96.4812 94.4844 92.6225 93.1927 89.9747 90.6095C87.3269 88.0263 86.003 84.0061 86.003 78.5491C86.003 72.7691 87.3269 68.6198 89.9747 66.1012C92.6225 63.5825 96.4812 62.3232 101.551 62.3232C106.62 62.3232 110.479 63.5825 113.127 66.1012C115.775 68.6198 117.099 72.7691 117.099 78.5491C117.099 84.0061 115.775 88.0263 113.127 90.6095C110.479 93.1927 106.62 94.4844 101.551 94.4844ZM101.551 87.8487C104.166 87.8487 106.071 87.106 107.266 85.6207C108.493 84.103 109.107 81.7458 109.107 78.5491C109.107 75.0617 108.493 72.6077 107.266 71.1869C106.071 69.7338 104.166 69.0073 101.551 69.0073C98.903 69.0073 96.9656 69.7338 95.7386 71.1869C94.5438 72.6077 93.9464 75.0617 93.9464 78.5491C93.9464 81.7458 94.5438 84.103 95.7386 85.6207C96.9656 87.106 98.903 87.8487 101.551 87.8487ZM125.433 94L118.167 62.8075H125.82L129.937 81.6005L134.199 67.2152V62.8075H140.593L145.969 81.6489L150.28 62.8075H157.933L150.716 94H143.499L138.268 75.982L132.649 94H125.433ZM172.301 94V62.8075H187.898C191.579 62.8075 194.291 63.7763 196.035 65.7137C197.779 67.6511 198.65 70.2505 198.65 73.5118C198.65 75.6107 198.118 77.4512 197.052 79.0334C195.986 80.6157 194.533 81.7943 192.693 82.5692C193.145 82.9244 193.5 83.328 193.758 83.7801C194.049 84.1999 194.356 84.7973 194.679 85.5722L198.36 94H190.223L186.735 86.0566C186.445 85.3785 186.073 84.8941 185.621 84.6035C185.169 84.2806 184.523 84.1192 183.684 84.1192H180.1V94H172.301ZM180.1 78.1132H185.863C187.381 78.1132 188.56 77.7418 189.399 76.9991C190.271 76.2242 190.707 75.0617 190.707 73.5118C190.707 70.3796 189.205 68.8135 186.202 68.8135H180.1V78.1132ZM202.621 94V62.8075H210.419V94H202.621ZM225.274 94.4844C223.207 94.4844 221.27 94.3229 219.462 94C217.686 93.7094 216.152 93.2735 214.86 92.6922V86.0566C216.281 86.6701 217.847 87.1706 219.559 87.5581C221.302 87.9456 222.949 88.1393 224.499 88.1393C226.436 88.1393 227.873 87.9617 228.81 87.6065C229.778 87.2513 230.263 86.4764 230.263 85.2816C230.263 84.4744 230.021 83.8285 229.536 83.3442C229.084 82.8598 228.325 82.4401 227.26 82.0849C226.227 81.6974 224.806 81.2453 222.997 80.7287C220.866 80.0829 219.171 79.3725 217.912 78.5975C216.652 77.7903 215.748 76.8215 215.199 75.6914C214.65 74.5612 214.376 73.1727 214.376 71.5259C214.376 68.5552 215.442 66.2788 217.573 64.6965C219.704 63.1143 222.852 62.3232 227.018 62.3232C228.826 62.3232 230.586 62.4685 232.297 62.7591C234.008 63.0174 235.397 63.3242 236.463 63.6794V70.3635C235.074 69.8145 233.669 69.4109 232.249 69.1526C230.86 68.8943 229.504 68.7651 228.18 68.7651C226.436 68.7651 225.016 68.9266 223.918 69.2495C222.852 69.5724 222.319 70.315 222.319 71.4775C222.319 72.1556 222.513 72.7045 222.901 73.1243C223.288 73.5118 223.95 73.867 224.886 74.1899C225.855 74.5128 227.163 74.9003 228.81 75.3523C231.361 76.0304 233.314 76.8538 234.67 77.8225C236.027 78.759 236.963 79.8568 237.48 81.1162C237.996 82.3432 238.255 83.7317 238.255 85.2816C238.255 88.0263 237.189 90.2543 235.058 91.9657C232.927 93.6448 229.665 94.4844 225.274 94.4844ZM242.211 94V62.8075H250.009V74.9164L260.762 62.8075H269.674L258.534 75.5461L270.352 94H262.021L253.69 80.5349L250.009 84.5551V94H242.211Z" fill="#3E91D5"/>
<mask id="mask0_292_663" style="mask-type:luminance" maskUnits="userSpaceOnUse" x="-1" y="60" width="38" height="34">
<path fill-rule="evenodd" clip-rule="evenodd" d="M18 62.75L1.5 91.25H34.5L18 62.75Z" fill="white" stroke="white" stroke-width="4" stroke-linejoin="round"/>
<path d="M18 85.25V86M18 73.25L18.006 80.75" stroke="black" stroke-width="4" stroke-linecap="round"/>
</mask>
<g mask="url(#mask0_292_663)">
<path d="M0 59H36V95H0V59Z" fill="#3E91D5"/>
</g>
<mask id="mask1_292_663" style="mask-type:luminance" maskUnits="userSpaceOnUse" x="295" y="60" width="38" height="34">
<path fill-rule="evenodd" clip-rule="evenodd" d="M314 62.75L297.5 91.25H330.5L314 62.75Z" fill="white" stroke="white" stroke-width="4" stroke-linejoin="round"/>
<path d="M314 85.25V86M314 73.25L314.006 80.75" stroke="black" stroke-width="4" stroke-linecap="round"/>
</mask>
<g mask="url(#mask1_292_663)">
<path d="M296 59H332V95H296V59Z" fill="#3E91D5"/>
</g>
</svg>
