<svg width="407" height="154" viewBox="0 0 407 154" fill="none" xmlns="http://www.w3.org/2000/svg">
<path d="M60.9949 94V62.8075H68.6961L77.1723 80.099L85.6001 62.8075H93.2529V94H85.4548V76.0789L79.3035 88.6721H74.9927L68.793 76.0789V94H60.9949ZM110.475 94.4844C106.471 94.4844 103.259 93.4995 100.837 91.5298C98.4151 89.5278 97.2042 86.5248 97.2042 82.5208C97.2042 78.872 98.2052 75.9659 100.207 73.8024C102.209 71.6389 105.212 70.5572 109.216 70.5572C112.865 70.5572 115.69 71.4936 117.692 73.3665C119.694 75.2393 120.695 77.758 120.695 80.9224V85.0394H104.421C104.776 86.5571 105.6 87.6227 106.891 88.2362C108.215 88.8174 110.007 89.108 112.268 89.108C113.527 89.108 114.802 88.995 116.094 88.769C117.418 88.5429 118.516 88.2523 119.388 87.8971V92.9829C118.29 93.4995 116.982 93.8708 115.464 94.0969C113.947 94.3552 112.284 94.4844 110.475 94.4844ZM104.421 80.5349H113.914V79.5178C113.914 78.3876 113.575 77.4996 112.897 76.8538C112.219 76.1757 111.073 75.8367 109.458 75.8367C107.586 75.8367 106.278 76.2242 105.535 76.9991C104.792 77.7418 104.421 78.9204 104.421 80.5349ZM134.3 94.4844C132.072 94.4844 130.167 94.1292 128.584 93.4188C127.002 92.7084 125.791 91.5459 124.952 89.9314C124.112 88.2846 123.692 86.0889 123.692 83.3442C123.692 80.5672 124.177 78.2423 125.145 76.3695C126.114 74.4644 127.438 73.0274 129.117 72.0587C130.828 71.0577 132.782 70.5572 134.978 70.5572C136.173 70.5572 137.238 70.6864 138.175 70.9447C139.143 71.203 140.047 71.5905 140.887 72.1072V61.3545H148.685V94H141.952L141.517 92.0626C140.58 92.8698 139.531 93.4834 138.368 93.9031C137.206 94.2906 135.85 94.4844 134.3 94.4844ZM136.528 88.8174C138.239 88.8174 139.692 88.2362 140.887 87.0737V77.7741C139.789 76.7731 138.384 76.2726 136.673 76.2726C135.026 76.2726 133.767 76.9023 132.895 78.1616C132.056 79.3886 131.636 81.1323 131.636 83.3926C131.636 85.5884 132.039 87.0414 132.847 87.7518C133.686 88.4622 134.913 88.8174 136.528 88.8174ZM155.159 67.4089V61.5482H163.635V67.4089H155.159ZM155.788 94V76.8054H152.398L153.076 71.0416H163.587V94H155.788ZM176.451 94.4844C173.738 94.4844 171.623 93.7255 170.106 92.2079C168.588 90.658 167.829 88.4138 167.829 85.4754V71.0416H175.627V85.0394C175.627 86.331 175.934 87.2836 176.548 87.8971C177.193 88.4784 178.146 88.769 179.405 88.769C180.342 88.769 181.23 88.5752 182.069 88.1877C182.909 87.8003 183.603 87.3159 184.152 86.7347V71.0416H191.95V94H184.685L184.443 92.0626C183.506 92.773 182.376 93.3542 181.052 93.8063C179.728 94.2583 178.194 94.4844 176.451 94.4844ZM196.889 94V71.0416H204.105L204.348 73.0759C205.381 72.3332 206.543 71.7358 207.835 71.2838C209.127 70.7994 210.515 70.5572 212 70.5572C213.55 70.5572 214.761 70.7994 215.633 71.2838C216.505 71.7358 217.183 72.3816 217.667 73.2212C218.733 72.4462 219.928 71.8165 221.252 71.3322C222.608 70.8155 224.19 70.5572 225.998 70.5572C228.678 70.5572 230.648 71.2515 231.907 72.64C233.167 74.0284 233.796 76.1434 233.796 78.985V94H226.095V79.9053C226.095 78.646 225.821 77.7418 225.272 77.1929C224.755 76.6117 223.899 76.321 222.705 76.321C221.962 76.321 221.235 76.4825 220.525 76.8054C219.815 77.096 219.217 77.5158 218.733 78.0647C218.798 78.4199 218.83 78.759 218.83 79.0819C218.862 79.4048 218.878 79.7923 218.878 80.2443V94H211.613V79.8084C211.613 78.6459 211.403 77.7741 210.983 77.1929C210.596 76.6117 209.837 76.321 208.707 76.321C207.9 76.321 207.141 76.5309 206.43 76.9507C205.72 77.3705 205.074 77.8548 204.493 78.4038V94H196.889ZM248.919 94V62.8075H264.515C268.196 62.8075 270.909 63.7763 272.652 65.7137C274.396 67.6511 275.268 70.2505 275.268 73.5118C275.268 75.6107 274.735 77.4512 273.669 79.0334C272.604 80.6157 271.151 81.7943 269.31 82.5692C269.762 82.9244 270.117 83.328 270.376 83.7801C270.666 84.1999 270.973 84.7973 271.296 85.5722L274.977 94H266.84L263.353 86.0566C263.062 85.3785 262.691 84.8941 262.239 84.6035C261.787 84.2806 261.141 84.1192 260.301 84.1192H256.717V94H248.919ZM256.717 78.1132H262.481C263.998 78.1132 265.177 77.7418 266.017 76.9991C266.888 76.2242 267.324 75.0617 267.324 73.5118C267.324 70.3796 265.823 68.8135 262.82 68.8135H256.717V78.1132ZM279.238 94V62.8075H287.036V94H279.238ZM301.891 94.4844C299.825 94.4844 297.887 94.3229 296.079 94C294.303 93.7094 292.769 93.2735 291.478 92.6922V86.0566C292.899 86.6701 294.465 87.1706 296.176 87.5581C297.92 87.9456 299.566 88.1393 301.116 88.1393C303.054 88.1393 304.491 87.9617 305.427 87.6065C306.396 87.2513 306.88 86.4764 306.88 85.2816C306.88 84.4744 306.638 83.8285 306.154 83.3442C305.702 82.8598 304.943 82.4401 303.877 82.0849C302.844 81.6974 301.423 81.2453 299.615 80.7287C297.484 80.0829 295.789 79.3725 294.529 78.5975C293.27 77.7903 292.366 76.8215 291.817 75.6914C291.268 74.5612 290.993 73.1727 290.993 71.5259C290.993 68.5552 292.059 66.2788 294.19 64.6965C296.321 63.1143 299.47 62.3232 303.635 62.3232C305.443 62.3232 307.203 62.4685 308.915 62.7591C310.626 63.0174 312.014 63.3242 313.08 63.6794V70.3635C311.691 69.8145 310.287 69.4109 308.866 69.1526C307.478 68.8943 306.121 68.7651 304.798 68.7651C303.054 68.7651 301.633 68.9266 300.535 69.2495C299.47 69.5724 298.937 70.315 298.937 71.4775C298.937 72.1556 299.131 72.7045 299.518 73.1243C299.906 73.5118 300.567 73.867 301.504 74.1899C302.473 74.5128 303.78 74.9003 305.427 75.3523C307.978 76.0304 309.932 76.8538 311.288 77.8225C312.644 78.759 313.58 79.8568 314.097 81.1162C314.614 82.3432 314.872 83.7317 314.872 85.2816C314.872 88.0263 313.807 90.2543 311.675 91.9657C309.544 93.6448 306.283 94.4844 301.891 94.4844ZM318.829 94V62.8075H326.627V74.9164L337.379 62.8075H346.292L335.151 75.5461L346.97 94H338.639L330.308 80.5349L326.627 84.5551V94H318.829Z" fill="#F36437"/>
<mask id="mask0_292_662" style="mask-type:luminance" maskUnits="userSpaceOnUse" x="-1" y="60" width="38" height="34">
<path fill-rule="evenodd" clip-rule="evenodd" d="M18 62.75L1.5 91.25H34.5L18 62.75Z" fill="white" stroke="white" stroke-width="4" stroke-linejoin="round"/>
<path d="M18 85.25V86M18 73.25L18.006 80.75" stroke="black" stroke-width="4" stroke-linecap="round"/>
</mask>
<g mask="url(#mask0_292_662)">
<path d="M0 59H36V95H0V59Z" fill="#F36437"/>
</g>
<mask id="mask1_292_662" style="mask-type:luminance" maskUnits="userSpaceOnUse" x="370" y="60" width="38" height="34">
<path fill-rule="evenodd" clip-rule="evenodd" d="M389 62.75L372.5 91.25H405.5L389 62.75Z" fill="white" stroke="white" stroke-width="4" stroke-linejoin="round"/>
<path d="M389 85.25V86M389 73.25L389.006 80.75" stroke="black" stroke-width="4" stroke-linecap="round"/>
</mask>
<g mask="url(#mask1_292_662)">
<path d="M371 59H407V95H371V59Z" fill="#F36437"/>
</g>
</svg>
